<svg width="56" height="56" viewBox="0 0 56 56" fill="none" xmlns="http://www.w3.org/2000/svg">
<rect x="4" y="4" width="48" height="48" rx="24" fill="#F1F1F1"/>
<rect x="4" y="4" width="48" height="48" rx="24" stroke="#F9F9F9" stroke-width="8"/>
<path d="M28.75 30.4201H29.4C30.05 30.4201 30.59 29.8401 30.59 29.1401C30.59 28.2701 30.28 28.1001 29.77 27.9201L28.76 27.5701V30.4201H28.75Z" fill="#292D32"/>
<path d="M27.97 16.3999C22.45 16.4199 17.98 20.9099 18 26.4299C18.02 31.9499 22.51 36.4199 28.03 36.3999C33.55 36.3799 38.02 31.8899 38 26.3699C37.98 20.8499 33.49 16.3899 27.97 16.3999ZM30.26 26.4999C31.04 26.7699 32.09 27.3499 32.09 29.1399C32.09 30.6799 30.88 31.9199 29.4 31.9199H28.75V32.4999C28.75 32.9099 28.41 33.2499 28 33.2499C27.59 33.2499 27.25 32.9099 27.25 32.4999V31.9199H26.89C25.25 31.9199 23.92 30.5399 23.92 28.8399C23.92 28.4299 24.26 28.0899 24.67 28.0899C25.08 28.0899 25.42 28.4299 25.42 28.8399C25.42 29.7099 26.08 30.4199 26.89 30.4199H27.25V27.0399L25.74 26.4999C24.96 26.2299 23.91 25.6499 23.91 23.8599C23.91 22.3199 25.12 21.0799 26.6 21.0799H27.25V20.4999C27.25 20.0899 27.59 19.7499 28 19.7499C28.41 19.7499 28.75 20.0899 28.75 20.4999V21.0799H29.11C30.75 21.0799 32.08 22.4599 32.08 24.1599C32.08 24.5699 31.74 24.9099 31.33 24.9099C30.92 24.9099 30.58 24.5699 30.58 24.1599C30.58 23.2899 29.92 22.5799 29.11 22.5799H28.75V25.9599L30.26 26.4999Z" fill="#292D32"/>
<path d="M25.42 23.8701C25.42 24.7401 25.73 24.9101 26.24 25.0901L27.25 25.4401V22.5801H26.6C25.95 22.5801 25.42 23.1601 25.42 23.8701Z" fill="#292D32"/>
</svg>
