<svg width="18" height="19" viewBox="0 0 18 19" fill="none" xmlns="http://www.w3.org/2000/svg">
<path d="M11.7824 10.0325C12.5177 9.454 13.0544 8.66069 13.3178 7.76296C13.5812 6.86522 13.5583 5.9077 13.2522 5.0236C12.9461 4.1395 12.3721 3.3728 11.6099 2.83014C10.8478 2.28749 9.93546 1.99588 8.99988 1.99588C8.06429 1.99588 7.15196 2.28749 6.38982 2.83014C5.62768 3.3728 5.05363 4.1395 4.74753 5.0236C4.44144 5.9077 4.41851 6.86522 4.68195 7.76296C4.94538 8.66069 5.48208 9.454 6.21738 10.0325C4.95743 10.5373 3.85809 11.3745 3.03654 12.4549C2.215 13.5354 1.70205 14.8185 1.55238 16.1675C1.54154 16.266 1.55021 16.3657 1.57789 16.4608C1.60558 16.5559 1.65173 16.6447 1.71371 16.722C1.83889 16.8781 2.02096 16.9781 2.21988 17C2.41879 17.0219 2.61825 16.9638 2.77437 16.8387C2.93049 16.7135 3.0305 16.5314 3.05238 16.3325C3.21706 14.8664 3.91614 13.5124 5.01604 12.5291C6.11594 11.5458 7.53955 11.0023 9.01488 11.0023C10.4902 11.0023 11.9138 11.5458 13.0137 12.5291C14.1136 13.5124 14.8127 14.8664 14.9774 16.3325C14.9978 16.5168 15.0857 16.687 15.2242 16.8103C15.3627 16.9335 15.542 17.0011 15.7274 17H15.8099C16.0065 16.9774 16.1862 16.878 16.3098 16.7234C16.4334 16.5689 16.491 16.3718 16.4699 16.175C16.3195 14.8222 15.8038 13.5357 14.978 12.4537C14.1522 11.3716 13.0476 10.5346 11.7824 10.0325ZM8.99988 9.5C8.40653 9.5 7.82651 9.32405 7.33317 8.99441C6.83982 8.66477 6.4553 8.19623 6.22824 7.64805C6.00117 7.09987 5.94176 6.49667 6.05752 5.91473C6.17327 5.33279 6.459 4.79824 6.87855 4.37868C7.29811 3.95912 7.83266 3.6734 8.41461 3.55765C8.99655 3.44189 9.59975 3.5013 10.1479 3.72836C10.6961 3.95543 11.1646 4.33994 11.4943 4.83329C11.8239 5.32664 11.9999 5.90666 11.9999 6.5C11.9999 7.29565 11.6838 8.05871 11.1212 8.62132C10.5586 9.18393 9.79553 9.5 8.99988 9.5Z" fill="#818187"/>
</svg>
