<svg width="25" height="24" viewBox="0 0 25 24" fill="none" xmlns="http://www.w3.org/2000/svg">
<path d="M4.59338 11.0199V15.9899C4.59338 17.8099 4.59338 17.8099 6.31338 18.9699L11.0434 21.6999C11.7534 22.1099 12.9134 22.1099 13.6234 21.6999L18.3534 18.9699C20.0734 17.8099 20.0734 17.8099 20.0734 15.9899V11.0199C20.0734 9.19994 20.0734 9.19994 18.3534 8.03994L13.6234 5.30994C12.9134 4.89994 11.7534 4.89994 11.0434 5.30994L6.31338 8.03994C4.59338 9.19994 4.59338 9.19994 4.59338 11.0199Z" stroke="#292D32" stroke-width="1.5" stroke-linecap="round" stroke-linejoin="round"/>
<path d="M17.8334 7.63V5C17.8334 3 16.8334 2 14.8334 2H9.83337C7.83337 2 6.83337 3 6.83337 5V7.56" stroke="#292D32" stroke-width="1.5" stroke-linecap="round" stroke-linejoin="round"/>
<path d="M12.9634 10.99L13.5334 11.88C13.6234 12.02 13.8234 12.16 13.9734 12.2L14.9934 12.46C15.6234 12.62 15.7934 13.16 15.3834 13.66L14.7134 14.47C14.6134 14.6 14.5334 14.83 14.5434 14.99L14.6034 16.04C14.6434 16.69 14.1834 17.02 13.5834 16.78L12.6034 16.39C12.4534 16.33 12.2034 16.33 12.0534 16.39L11.0734 16.78C10.4734 17.02 10.0134 16.68 10.0534 16.04L10.1134 14.99C10.1234 14.83 10.0434 14.59 9.9434 14.47L9.2734 13.66C8.8634 13.16 9.0334 12.62 9.6634 12.46L10.6834 12.2C10.8434 12.16 11.0434 12.01 11.1234 11.88L11.6934 10.99C12.0534 10.45 12.6134 10.45 12.9634 10.99Z" stroke="#292D32" stroke-width="1.5" stroke-linecap="round" stroke-linejoin="round"/>
</svg>
