<svg width="25" height="24" viewBox="0 0 25 24" fill="none" xmlns="http://www.w3.org/2000/svg">
<path d="M22.6367 18.33C22.6367 18.69 22.5567 19.06 22.3867 19.42C22.2167 19.78 21.9967 20.12 21.7067 20.44C21.2167 20.98 20.6767 21.37 20.0667 21.62C19.4667 21.87 18.8167 22 18.1167 22C17.0967 22 16.0067 21.76 14.8567 21.27C13.7067 20.78 12.5567 20.12 11.4167 19.29C10.2667 18.45 9.17669 17.52 8.13669 16.49C7.10669 15.45 6.17669 14.36 5.34669 13.22C4.52669 12.08 3.86669 10.94 3.38669 9.81C2.90669 8.67 2.66669 7.58 2.66669 6.54C2.66669 5.86 2.78669 5.21 3.02669 4.61C3.26669 4 3.64669 3.44 4.17669 2.94C4.81669 2.31 5.51669 2 6.25669 2C6.53669 2 6.81669 2.06 7.06669 2.18C7.32669 2.3 7.55669 2.48 7.73669 2.74L10.0567 6.01C10.2367 6.26 10.3667 6.49 10.4567 6.71C10.5467 6.92 10.5967 7.13 10.5967 7.32C10.5967 7.56 10.5267 7.8 10.3867 8.03C10.2567 8.26 10.0667 8.5 9.82669 8.74L9.06669 9.53C8.95669 9.64 8.90669 9.77 8.90669 9.93C8.90669 10.01 8.91669 10.08 8.93669 10.16C8.96669 10.24 8.99669 10.3 9.01669 10.36C9.19669 10.69 9.50669 11.12 9.94669 11.64C10.3967 12.16 10.8767 12.69 11.3967 13.22C11.9367 13.75 12.4567 14.24 12.9867 14.69C13.5067 15.13 13.9367 15.43 14.2767 15.61C14.3267 15.63 14.3867 15.66 14.4567 15.69C14.5367 15.72 14.6167 15.73 14.7067 15.73C14.8767 15.73 15.0067 15.67 15.1167 15.56L15.8767 14.81C16.1267 14.56 16.3667 14.37 16.5967 14.25C16.8267 14.11 17.0567 14.04 17.3067 14.04C17.4967 14.04 17.6967 14.08 17.9167 14.17C18.1367 14.26 18.3667 14.39 18.6167 14.56L21.9267 16.91C22.1867 17.09 22.3667 17.3 22.4767 17.55C22.5767 17.8 22.6367 18.05 22.6367 18.33Z" stroke="#292D32" stroke-width="1.5" stroke-miterlimit="10"/>
<path d="M19.1667 9C19.1667 8.4 18.6967 7.48 17.9967 6.73C17.3567 6.04 16.5067 5.5 15.6667 5.5" stroke="#292D32" stroke-width="1.5" stroke-linecap="round" stroke-linejoin="round"/>
<path d="M22.6667 9C22.6667 5.13 19.5367 2 15.6667 2" stroke="#292D32" stroke-width="1.5" stroke-linecap="round" stroke-linejoin="round"/>
</svg>
