<svg width="772" height="320" viewBox="0 0 772 320" fill="none" xmlns="http://www.w3.org/2000/svg">
<rect width="772" height="320" rx="16" fill="white"/>
<path d="M32.14 45.2C31.0733 45.2 30.1 45.02 29.22 44.66C28.34 44.3 27.5733 43.7933 26.92 43.14C26.2667 42.4867 25.76 41.72 25.4 40.84C25.04 39.96 24.86 38.9933 24.86 37.94C24.86 36.8867 25.04 35.92 25.4 35.04C25.76 34.16 26.2667 33.3933 26.92 32.74C27.5733 32.0867 28.34 31.58 29.22 31.22C30.1 30.86 31.0667 30.68 32.12 30.68C33.1733 30.68 34.14 30.86 35.02 31.22C35.9 31.58 36.6667 32.0867 37.32 32.74C37.9733 33.3933 38.4733 34.16 38.82 35.04C39.18 35.92 39.36 36.8867 39.36 37.94C39.36 38.98 39.18 39.9467 38.82 40.84C38.4733 41.72 37.9733 42.4867 37.32 43.14C36.6667 43.7933 35.9 44.3 35.02 44.66C34.14 45.02 33.18 45.2 32.14 45.2ZM32.12 42C32.6667 42 33.1667 41.9 33.62 41.7C34.0867 41.5 34.4867 41.22 34.82 40.86C35.1667 40.4867 35.4333 40.0533 35.62 39.56C35.8067 39.0667 35.9 38.5267 35.9 37.94C35.9 37.3533 35.8067 36.8133 35.62 36.32C35.4333 35.8267 35.1667 35.4 34.82 35.04C34.4867 34.6667 34.0867 34.38 33.62 34.18C33.1667 33.98 32.6667 33.88 32.12 33.88C31.5733 33.88 31.0667 33.98 30.6 34.18C30.1467 34.38 29.7467 34.6667 29.4 35.04C29.0533 35.4 28.7867 35.8267 28.6 36.32C28.4267 36.8133 28.34 37.3533 28.34 37.94C28.34 38.5267 28.4267 39.0733 28.6 39.58C28.7867 40.0733 29.0533 40.5 29.4 40.86C29.7467 41.22 30.1467 41.5 30.6 41.7C31.0667 41.9 31.5733 42 32.12 42ZM44.9105 45L40.4705 34.38H44.0105L46.6505 42.32L45.8705 42.4L48.5905 34.38H52.0905L47.4305 45H44.9105ZM58.5269 45.2C57.3535 45.2 56.3335 44.9667 55.4669 44.5C54.6002 44.02 53.9269 43.3733 53.4469 42.56C52.9669 41.7333 52.7269 40.7933 52.7269 39.74C52.7269 38.9267 52.8602 38.18 53.1269 37.5C53.3935 36.82 53.7669 36.2333 54.2469 35.74C54.7269 35.2333 55.2935 34.8467 55.9469 34.58C56.6135 34.3 57.3402 34.16 58.1269 34.16C58.8735 34.16 59.5535 34.2933 60.1669 34.56C60.7935 34.8267 61.3335 35.2 61.7869 35.68C62.2402 36.16 62.5869 36.7267 62.8269 37.38C63.0669 38.0333 63.1735 38.7467 63.1469 39.52L63.1269 40.38H54.6669L54.2069 38.58H60.5269L60.1869 38.96V38.56C60.1602 38.2267 60.0535 37.9333 59.8669 37.68C59.6935 37.4133 59.4602 37.2067 59.1669 37.06C58.8735 36.9133 58.5402 36.84 58.1669 36.84C57.6469 36.84 57.2002 36.9467 56.8269 37.16C56.4669 37.36 56.1935 37.66 56.0069 38.06C55.8202 38.4467 55.7269 38.9267 55.7269 39.5C55.7269 40.0867 55.8469 40.6 56.0869 41.04C56.3402 41.4667 56.7002 41.8 57.1669 42.04C57.6469 42.28 58.2135 42.4 58.8669 42.4C59.3202 42.4 59.7202 42.3333 60.0669 42.2C60.4269 42.0667 60.8135 41.84 61.2269 41.52L62.7269 43.64C62.3135 44 61.8735 44.2933 61.4069 44.52C60.9402 44.7467 60.4602 44.9133 59.9669 45.02C59.4869 45.14 59.0069 45.2 58.5269 45.2ZM65.1856 45V34.38H68.2256L68.3656 37.84L67.7656 37.18C67.9256 36.6067 68.1856 36.0933 68.5456 35.64C68.919 35.1867 69.3523 34.8267 69.8456 34.56C70.339 34.2933 70.8656 34.16 71.4256 34.16C71.6656 34.16 71.8856 34.18 72.0856 34.22C72.299 34.26 72.4923 34.3067 72.6656 34.36L71.7856 37.9C71.639 37.8067 71.439 37.7333 71.1856 37.68C70.9456 37.6133 70.6923 37.58 70.4256 37.58C70.1323 37.58 69.859 37.6333 69.6056 37.74C69.3523 37.8333 69.139 37.9733 68.9656 38.16C68.7923 38.3467 68.6523 38.5667 68.5456 38.82C68.4523 39.0733 68.4056 39.36 68.4056 39.68V45H65.1856ZM78.5433 45L74.1033 34.38H77.6433L80.2833 42.32L79.5033 42.4L82.2233 34.38H85.7233L81.0633 45H78.5433ZM87.5727 45V34.38H90.7727V45H87.5727ZM89.1727 32.28C88.5727 32.28 88.0993 32.14 87.7527 31.86C87.4193 31.5667 87.2527 31.1533 87.2527 30.62C87.2527 30.14 87.426 29.7467 87.7727 29.44C88.1193 29.1333 88.586 28.98 89.1727 28.98C89.7727 28.98 90.2393 29.1267 90.5727 29.42C90.906 29.7 91.0727 30.1 91.0727 30.62C91.0727 31.1133 90.8993 31.5133 90.5527 31.82C90.2193 32.1267 89.7593 32.28 89.1727 32.28ZM98.8394 45.2C97.666 45.2 96.646 44.9667 95.7794 44.5C94.9127 44.02 94.2394 43.3733 93.7594 42.56C93.2794 41.7333 93.0394 40.7933 93.0394 39.74C93.0394 38.9267 93.1727 38.18 93.4394 37.5C93.706 36.82 94.0794 36.2333 94.5594 35.74C95.0394 35.2333 95.606 34.8467 96.2594 34.58C96.926 34.3 97.6527 34.16 98.4394 34.16C99.186 34.16 99.866 34.2933 100.479 34.56C101.106 34.8267 101.646 35.2 102.099 35.68C102.553 36.16 102.899 36.7267 103.139 37.38C103.379 38.0333 103.486 38.7467 103.459 39.52L103.439 40.38H94.9794L94.5194 38.58H100.839L100.499 38.96V38.56C100.473 38.2267 100.366 37.9333 100.179 37.68C100.006 37.4133 99.7727 37.2067 99.4794 37.06C99.186 36.9133 98.8527 36.84 98.4794 36.84C97.9594 36.84 97.5127 36.9467 97.1394 37.16C96.7794 37.36 96.506 37.66 96.3194 38.06C96.1327 38.4467 96.0394 38.9267 96.0394 39.5C96.0394 40.0867 96.1594 40.6 96.3994 41.04C96.6527 41.4667 97.0127 41.8 97.4794 42.04C97.9594 42.28 98.526 42.4 99.1794 42.4C99.6327 42.4 100.033 42.3333 100.379 42.2C100.739 42.0667 101.126 41.84 101.539 41.52L103.039 43.64C102.626 44 102.186 44.2933 101.719 44.52C101.253 44.7467 100.773 44.9133 100.279 45.02C99.7994 45.14 99.3194 45.2 98.8394 45.2ZM107.623 45L104.123 34.38H107.503L109.463 41.28L109.043 41.2L111.243 35.84H113.123L115.443 41.22L114.983 41.26L116.943 34.38H120.323L116.703 45H114.343L112.043 39.3L112.283 39.34L109.983 45H107.623Z" fill="#3B3B45"/>
<rect x="355" y="24" width="112" height="28" rx="12" fill="#FF8600"/>
<path d="M372.128 43V34.6H375.776C376.28 34.6 376.74 34.72 377.156 34.96C377.572 35.192 377.9 35.512 378.14 35.92C378.388 36.32 378.512 36.772 378.512 37.276C378.512 37.756 378.388 38.2 378.14 38.608C377.9 39.008 377.572 39.328 377.156 39.568C376.748 39.8 376.288 39.916 375.776 39.916H373.652V43H372.128ZM377 43L374.864 39.208L376.472 38.908L378.848 43.012L377 43ZM373.652 38.56H375.788C376.02 38.56 376.22 38.508 376.388 38.404C376.564 38.292 376.7 38.14 376.796 37.948C376.892 37.756 376.94 37.544 376.94 37.312C376.94 37.048 376.88 36.82 376.76 36.628C376.64 36.436 376.472 36.284 376.256 36.172C376.04 36.06 375.792 36.004 375.512 36.004H373.652V38.56ZM383.129 43.12C382.497 43.12 381.933 42.98 381.437 42.7C380.941 42.412 380.549 42.02 380.261 41.524C379.973 41.028 379.829 40.464 379.829 39.832C379.829 39.2 379.973 38.636 380.261 38.14C380.549 37.644 380.941 37.256 381.437 36.976C381.933 36.688 382.497 36.544 383.129 36.544C383.753 36.544 384.313 36.688 384.809 36.976C385.305 37.256 385.693 37.644 385.973 38.14C386.261 38.636 386.405 39.2 386.405 39.832C386.405 40.464 386.261 41.028 385.973 41.524C385.693 42.02 385.305 42.412 384.809 42.7C384.313 42.98 383.753 43.12 383.129 43.12ZM383.129 41.812C383.473 41.812 383.777 41.724 384.041 41.548C384.313 41.372 384.525 41.136 384.677 40.84C384.837 40.544 384.913 40.208 384.905 39.832C384.913 39.448 384.837 39.108 384.677 38.812C384.525 38.516 384.313 38.284 384.041 38.116C383.777 37.94 383.473 37.852 383.129 37.852C382.785 37.852 382.473 37.94 382.193 38.116C381.921 38.284 381.709 38.52 381.557 38.824C381.405 39.12 381.329 39.456 381.329 39.832C381.329 40.208 381.405 40.544 381.557 40.84C381.709 41.136 381.921 41.372 382.193 41.548C382.473 41.724 382.785 41.812 383.129 41.812ZM391.457 43.12C391.177 43.12 390.901 43.08 390.629 43C390.365 42.912 390.125 42.796 389.909 42.652C389.693 42.508 389.513 42.348 389.369 42.172C389.225 41.988 389.129 41.804 389.081 41.62L389.429 41.464L389.393 42.976H387.965V34.12H389.441V38.14L389.177 38.02C389.217 37.828 389.305 37.648 389.441 37.48C389.585 37.304 389.761 37.148 389.969 37.012C390.177 36.868 390.405 36.756 390.653 36.676C390.901 36.588 391.153 36.544 391.409 36.544C391.977 36.544 392.477 36.684 392.909 36.964C393.349 37.244 393.693 37.632 393.941 38.128C394.197 38.624 394.325 39.188 394.325 39.82C394.325 40.46 394.201 41.028 393.953 41.524C393.705 42.02 393.361 42.412 392.921 42.7C392.489 42.98 392.001 43.12 391.457 43.12ZM391.145 41.824C391.481 41.824 391.781 41.74 392.045 41.572C392.309 41.396 392.517 41.16 392.669 40.864C392.821 40.56 392.897 40.212 392.897 39.82C392.897 39.436 392.821 39.096 392.669 38.8C392.525 38.504 392.321 38.272 392.057 38.104C391.793 37.936 391.489 37.852 391.145 37.852C390.801 37.852 390.497 37.936 390.233 38.104C389.969 38.272 389.761 38.504 389.609 38.8C389.457 39.096 389.381 39.436 389.381 39.82C389.381 40.212 389.457 40.56 389.609 40.864C389.761 41.16 389.969 41.396 390.233 41.572C390.497 41.74 390.801 41.824 391.145 41.824ZM399.373 43.12C399.093 43.12 398.817 43.08 398.545 43C398.281 42.912 398.041 42.796 397.825 42.652C397.609 42.508 397.429 42.348 397.285 42.172C397.141 41.988 397.045 41.804 396.997 41.62L397.345 41.464L397.309 42.976H395.881V34.12H397.357V38.14L397.093 38.02C397.133 37.828 397.221 37.648 397.357 37.48C397.501 37.304 397.677 37.148 397.885 37.012C398.093 36.868 398.321 36.756 398.569 36.676C398.817 36.588 399.069 36.544 399.325 36.544C399.893 36.544 400.393 36.684 400.825 36.964C401.265 37.244 401.609 37.632 401.857 38.128C402.113 38.624 402.241 39.188 402.241 39.82C402.241 40.46 402.117 41.028 401.869 41.524C401.621 42.02 401.277 42.412 400.837 42.7C400.405 42.98 399.917 43.12 399.373 43.12ZM399.061 41.824C399.397 41.824 399.697 41.74 399.961 41.572C400.225 41.396 400.433 41.16 400.585 40.864C400.737 40.56 400.813 40.212 400.813 39.82C400.813 39.436 400.737 39.096 400.585 38.8C400.441 38.504 400.237 38.272 399.973 38.104C399.709 37.936 399.405 37.852 399.061 37.852C398.717 37.852 398.413 37.936 398.149 38.104C397.885 38.272 397.677 38.504 397.525 38.8C397.373 39.096 397.297 39.436 397.297 39.82C397.297 40.212 397.373 40.56 397.525 40.864C397.677 41.16 397.885 41.396 398.149 41.572C398.413 41.74 398.717 41.824 399.061 41.824ZM403.965 43V36.676H405.441V43H403.965ZM404.685 35.332C404.389 35.332 404.157 35.26 403.989 35.116C403.829 34.964 403.749 34.752 403.749 34.48C403.749 34.224 403.833 34.016 404.001 33.856C404.169 33.696 404.397 33.616 404.685 33.616C404.989 33.616 405.221 33.692 405.381 33.844C405.549 33.988 405.633 34.2 405.633 34.48C405.633 34.728 405.549 34.932 405.381 35.092C405.213 35.252 404.981 35.332 404.685 35.332ZM407.552 43V36.676H408.992L409.016 37.972L408.74 38.116C408.82 37.828 408.976 37.568 409.208 37.336C409.44 37.096 409.716 36.904 410.036 36.76C410.356 36.616 410.684 36.544 411.02 36.544C411.5 36.544 411.9 36.64 412.22 36.832C412.548 37.024 412.792 37.312 412.952 37.696C413.12 38.08 413.204 38.56 413.204 39.136V43H411.728V39.244C411.728 38.924 411.684 38.66 411.596 38.452C411.508 38.236 411.372 38.08 411.188 37.984C411.004 37.88 410.78 37.832 410.516 37.84C410.3 37.84 410.1 37.876 409.916 37.948C409.74 38.012 409.584 38.108 409.448 38.236C409.32 38.356 409.216 38.496 409.136 38.656C409.064 38.816 409.028 38.992 409.028 39.184V43H408.296C408.152 43 408.016 43 407.888 43C407.768 43 407.656 43 407.552 43ZM424.524 43V34.6H426.084V43H424.524ZM419.136 43V34.6H420.696V43H419.136ZM419.784 39.544V38.08H425.28V39.544H419.784ZM431.215 43.12C430.583 43.12 430.019 42.98 429.523 42.7C429.027 42.412 428.635 42.02 428.347 41.524C428.059 41.028 427.915 40.464 427.915 39.832C427.915 39.2 428.059 38.636 428.347 38.14C428.635 37.644 429.027 37.256 429.523 36.976C430.019 36.688 430.583 36.544 431.215 36.544C431.839 36.544 432.399 36.688 432.895 36.976C433.391 37.256 433.779 37.644 434.059 38.14C434.347 38.636 434.491 39.2 434.491 39.832C434.491 40.464 434.347 41.028 434.059 41.524C433.779 42.02 433.391 42.412 432.895 42.7C432.399 42.98 431.839 43.12 431.215 43.12ZM431.215 41.812C431.559 41.812 431.863 41.724 432.127 41.548C432.399 41.372 432.611 41.136 432.763 40.84C432.923 40.544 432.999 40.208 432.991 39.832C432.999 39.448 432.923 39.108 432.763 38.812C432.611 38.516 432.399 38.284 432.127 38.116C431.863 37.94 431.559 37.852 431.215 37.852C430.871 37.852 430.559 37.94 430.279 38.116C430.007 38.284 429.795 38.52 429.643 38.824C429.491 39.12 429.415 39.456 429.415 39.832C429.415 40.208 429.491 40.544 429.643 40.84C429.795 41.136 430.007 41.372 430.279 41.548C430.559 41.724 430.871 41.812 431.215 41.812ZM438.943 43.12C438.311 43.12 437.747 42.98 437.251 42.7C436.755 42.412 436.363 42.02 436.075 41.524C435.787 41.028 435.643 40.464 435.643 39.832C435.643 39.2 435.787 38.636 436.075 38.14C436.363 37.644 436.755 37.256 437.251 36.976C437.747 36.688 438.311 36.544 438.943 36.544C439.567 36.544 440.127 36.688 440.623 36.976C441.119 37.256 441.507 37.644 441.787 38.14C442.075 38.636 442.219 39.2 442.219 39.832C442.219 40.464 442.075 41.028 441.787 41.524C441.507 42.02 441.119 42.412 440.623 42.7C440.127 42.98 439.567 43.12 438.943 43.12ZM438.943 41.812C439.287 41.812 439.591 41.724 439.855 41.548C440.127 41.372 440.339 41.136 440.491 40.84C440.651 40.544 440.727 40.208 440.719 39.832C440.727 39.448 440.651 39.108 440.491 38.812C440.339 38.516 440.127 38.284 439.855 38.116C439.591 37.94 439.287 37.852 438.943 37.852C438.599 37.852 438.287 37.94 438.007 38.116C437.735 38.284 437.523 38.52 437.371 38.824C437.219 39.12 437.143 39.456 437.143 39.832C437.143 40.208 437.219 40.544 437.371 40.84C437.523 41.136 437.735 41.372 438.007 41.548C438.287 41.724 438.599 41.812 438.943 41.812ZM446.324 43.12C445.764 43.12 445.26 42.98 444.812 42.7C444.372 42.412 444.02 42.024 443.756 41.536C443.5 41.04 443.372 40.472 443.372 39.832C443.372 39.2 443.5 38.636 443.756 38.14C444.012 37.644 444.36 37.256 444.8 36.976C445.248 36.688 445.752 36.544 446.312 36.544C446.616 36.544 446.908 36.592 447.188 36.688C447.476 36.784 447.732 36.916 447.956 37.084C448.18 37.244 448.356 37.424 448.484 37.624C448.62 37.824 448.696 38.032 448.712 38.248L448.316 38.296V34.12H449.792V43H448.364L448.328 41.512L448.616 41.536C448.608 41.736 448.536 41.928 448.4 42.112C448.272 42.296 448.104 42.464 447.896 42.616C447.688 42.768 447.444 42.892 447.164 42.988C446.892 43.076 446.612 43.12 446.324 43.12ZM446.612 41.872C446.956 41.872 447.26 41.784 447.524 41.608C447.788 41.432 447.992 41.192 448.136 40.888C448.288 40.584 448.364 40.232 448.364 39.832C448.364 39.44 448.288 39.092 448.136 38.788C447.992 38.476 447.788 38.236 447.524 38.068C447.26 37.892 446.956 37.804 446.612 37.804C446.268 37.804 445.964 37.892 445.7 38.068C445.436 38.236 445.228 38.476 445.076 38.788C444.932 39.092 444.86 39.44 444.86 39.832C444.86 40.232 444.932 40.584 445.076 40.888C445.228 41.192 445.436 41.432 445.7 41.608C445.964 41.784 446.268 41.872 446.612 41.872Z" fill="white"/>
<rect x="475" y="24" width="101" height="28" rx="12" fill="#F6F6F6"/>
<path d="M491.192 43L494.468 34.6H495.932L499.184 43H497.564L495.764 38.224C495.724 38.128 495.668 37.976 495.596 37.768C495.532 37.56 495.46 37.336 495.38 37.096C495.3 36.848 495.228 36.62 495.164 36.412C495.1 36.196 495.052 36.04 495.02 35.944L495.32 35.932C495.272 36.092 495.216 36.272 495.152 36.472C495.088 36.672 495.02 36.88 494.948 37.096C494.876 37.312 494.804 37.52 494.732 37.72C494.668 37.92 494.608 38.1 494.552 38.26L492.752 43H491.192ZM492.68 41.08L493.22 39.724H497.048L497.624 41.08H492.68ZM500.459 43V36.676H501.911L501.935 37.948L501.695 38.044C501.767 37.836 501.875 37.644 502.019 37.468C502.163 37.284 502.335 37.128 502.535 37C502.735 36.864 502.947 36.76 503.171 36.688C503.395 36.608 503.623 36.568 503.855 36.568C504.199 36.568 504.503 36.624 504.767 36.736C505.039 36.84 505.263 37.008 505.439 37.24C505.623 37.472 505.759 37.768 505.847 38.128L505.619 38.08L505.715 37.888C505.803 37.696 505.927 37.524 506.087 37.372C506.247 37.212 506.427 37.072 506.627 36.952C506.827 36.824 507.035 36.728 507.251 36.664C507.475 36.6 507.695 36.568 507.911 36.568C508.391 36.568 508.791 36.664 509.111 36.856C509.431 37.048 509.671 37.34 509.831 37.732C509.991 38.124 510.071 38.608 510.071 39.184V43H508.583V39.28C508.583 38.96 508.539 38.696 508.451 38.488C508.371 38.28 508.243 38.128 508.067 38.032C507.899 37.928 507.687 37.876 507.431 37.876C507.231 37.876 507.039 37.912 506.855 37.984C506.679 38.048 506.527 38.144 506.399 38.272C506.271 38.392 506.171 38.532 506.099 38.692C506.027 38.852 505.991 39.028 505.991 39.22V43H504.503V39.268C504.503 38.964 504.459 38.712 504.371 38.512C504.283 38.304 504.155 38.148 503.987 38.044C503.819 37.932 503.615 37.876 503.375 37.876C503.175 37.876 502.987 37.912 502.811 37.984C502.635 38.048 502.483 38.14 502.355 38.26C502.227 38.38 502.127 38.52 502.055 38.68C501.983 38.84 501.947 39.016 501.947 39.208V43H500.459ZM511.949 43V36.676H513.401L513.425 38.692L513.221 38.236C513.309 37.916 513.461 37.628 513.677 37.372C513.893 37.116 514.141 36.916 514.421 36.772C514.709 36.62 515.009 36.544 515.321 36.544C515.457 36.544 515.585 36.556 515.705 36.58C515.833 36.604 515.937 36.632 516.017 36.664L515.621 38.284C515.533 38.236 515.425 38.196 515.297 38.164C515.169 38.132 515.041 38.116 514.913 38.116C514.713 38.116 514.521 38.156 514.337 38.236C514.161 38.308 514.005 38.412 513.869 38.548C513.733 38.684 513.625 38.844 513.545 39.028C513.473 39.204 513.437 39.404 513.437 39.628V43H511.949ZM519.935 43.12C519.271 43.12 518.683 42.98 518.171 42.7C517.667 42.42 517.271 42.04 516.983 41.56C516.703 41.072 516.563 40.516 516.563 39.892C516.563 39.396 516.643 38.944 516.803 38.536C516.963 38.128 517.183 37.776 517.463 37.48C517.751 37.176 518.091 36.944 518.483 36.784C518.883 36.616 519.319 36.532 519.791 36.532C520.207 36.532 520.595 36.612 520.955 36.772C521.315 36.932 521.627 37.152 521.891 37.432C522.155 37.704 522.355 38.032 522.491 38.416C522.635 38.792 522.703 39.204 522.695 39.652L522.683 40.168H517.559L517.283 39.16H521.447L521.255 39.364V39.1C521.231 38.852 521.151 38.636 521.015 38.452C520.879 38.26 520.703 38.112 520.487 38.008C520.279 37.896 520.047 37.84 519.791 37.84C519.399 37.84 519.067 37.916 518.795 38.068C518.531 38.22 518.331 38.44 518.195 38.728C518.059 39.008 517.991 39.36 517.991 39.784C517.991 40.192 518.075 40.548 518.243 40.852C518.419 41.156 518.663 41.392 518.975 41.56C519.295 41.72 519.667 41.8 520.091 41.8C520.387 41.8 520.659 41.752 520.907 41.656C521.155 41.56 521.423 41.388 521.711 41.14L522.443 42.16C522.227 42.36 521.979 42.532 521.699 42.676C521.427 42.812 521.139 42.92 520.835 43C520.531 43.08 520.231 43.12 519.935 43.12ZM524.41 43V36.676H525.886V43H524.41ZM525.13 35.332C524.834 35.332 524.602 35.26 524.434 35.116C524.274 34.964 524.194 34.752 524.194 34.48C524.194 34.224 524.278 34.016 524.446 33.856C524.614 33.696 524.842 33.616 525.13 33.616C525.434 33.616 525.666 33.692 525.826 33.844C525.994 33.988 526.078 34.2 526.078 34.48C526.078 34.728 525.994 34.932 525.826 35.092C525.658 35.252 525.426 35.332 525.13 35.332ZM528.682 43V35.068H530.158V43H528.682ZM527.434 38.044V36.676H531.538V38.044H527.434ZM532.902 43V36.676H534.354L534.378 38.692L534.174 38.236C534.262 37.916 534.414 37.628 534.63 37.372C534.846 37.116 535.094 36.916 535.374 36.772C535.662 36.62 535.962 36.544 536.274 36.544C536.41 36.544 536.538 36.556 536.658 36.58C536.786 36.604 536.89 36.632 536.97 36.664L536.574 38.284C536.486 38.236 536.378 38.196 536.25 38.164C536.122 38.132 535.994 38.116 535.866 38.116C535.666 38.116 535.474 38.156 535.29 38.236C535.114 38.308 534.958 38.412 534.822 38.548C534.686 38.684 534.578 38.844 534.498 39.028C534.426 39.204 534.39 39.404 534.39 39.628V43H532.902ZM540.311 43.12C539.791 43.12 539.319 42.976 538.895 42.688C538.471 42.4 538.131 42.008 537.875 41.512C537.619 41.016 537.491 40.452 537.491 39.82C537.491 39.188 537.619 38.624 537.875 38.128C538.131 37.632 538.479 37.244 538.919 36.964C539.359 36.684 539.855 36.544 540.407 36.544C540.727 36.544 541.019 36.592 541.283 36.688C541.547 36.776 541.779 36.904 541.979 37.072C542.179 37.24 542.343 37.432 542.471 37.648C542.607 37.864 542.699 38.096 542.747 38.344L542.423 38.26V36.676H543.911V43H542.411V41.488L542.759 41.428C542.703 41.644 542.599 41.856 542.447 42.064C542.303 42.264 542.119 42.444 541.895 42.604C541.679 42.756 541.435 42.88 541.163 42.976C540.899 43.072 540.615 43.12 540.311 43.12ZM540.719 41.812C541.063 41.812 541.367 41.728 541.631 41.56C541.895 41.392 542.099 41.16 542.243 40.864C542.395 40.56 542.471 40.212 542.471 39.82C542.471 39.436 542.395 39.096 542.243 38.8C542.099 38.504 541.895 38.272 541.631 38.104C541.367 37.936 541.063 37.852 540.719 37.852C540.375 37.852 540.071 37.936 539.807 38.104C539.551 38.272 539.351 38.504 539.207 38.8C539.063 39.096 538.991 39.436 538.991 39.82C538.991 40.212 539.063 40.56 539.207 40.864C539.351 41.16 539.551 41.392 539.807 41.56C540.071 41.728 540.375 41.812 540.719 41.812ZM548.406 43.12C547.846 43.12 547.342 42.98 546.894 42.7C546.454 42.412 546.102 42.024 545.838 41.536C545.582 41.04 545.454 40.472 545.454 39.832C545.454 39.2 545.582 38.636 545.838 38.14C546.094 37.644 546.442 37.256 546.882 36.976C547.33 36.688 547.834 36.544 548.394 36.544C548.698 36.544 548.99 36.592 549.27 36.688C549.558 36.784 549.814 36.916 550.038 37.084C550.262 37.244 550.438 37.424 550.566 37.624C550.702 37.824 550.778 38.032 550.794 38.248L550.398 38.296V34.12H551.874V43H550.446L550.41 41.512L550.698 41.536C550.69 41.736 550.618 41.928 550.482 42.112C550.354 42.296 550.186 42.464 549.978 42.616C549.77 42.768 549.526 42.892 549.246 42.988C548.974 43.076 548.694 43.12 548.406 43.12ZM548.694 41.872C549.038 41.872 549.342 41.784 549.606 41.608C549.87 41.432 550.074 41.192 550.218 40.888C550.37 40.584 550.446 40.232 550.446 39.832C550.446 39.44 550.37 39.092 550.218 38.788C550.074 38.476 549.87 38.236 549.606 38.068C549.342 37.892 549.038 37.804 548.694 37.804C548.35 37.804 548.046 37.892 547.782 38.068C547.518 38.236 547.31 38.476 547.158 38.788C547.014 39.092 546.942 39.44 546.942 39.832C546.942 40.232 547.014 40.584 547.158 40.888C547.31 41.192 547.518 41.432 547.782 41.608C548.046 41.784 548.35 41.872 548.694 41.872ZM556.754 43.12C556.09 43.12 555.502 42.98 554.99 42.7C554.486 42.42 554.09 42.04 553.802 41.56C553.522 41.072 553.382 40.516 553.382 39.892C553.382 39.396 553.462 38.944 553.622 38.536C553.782 38.128 554.002 37.776 554.282 37.48C554.57 37.176 554.91 36.944 555.302 36.784C555.702 36.616 556.138 36.532 556.61 36.532C557.026 36.532 557.414 36.612 557.774 36.772C558.134 36.932 558.446 37.152 558.71 37.432C558.974 37.704 559.174 38.032 559.31 38.416C559.454 38.792 559.522 39.204 559.514 39.652L559.502 40.168H554.378L554.102 39.16H558.266L558.074 39.364V39.1C558.05 38.852 557.97 38.636 557.834 38.452C557.698 38.26 557.522 38.112 557.306 38.008C557.098 37.896 556.866 37.84 556.61 37.84C556.218 37.84 555.886 37.916 555.614 38.068C555.35 38.22 555.15 38.44 555.014 38.728C554.878 39.008 554.81 39.36 554.81 39.784C554.81 40.192 554.894 40.548 555.062 40.852C555.238 41.156 555.482 41.392 555.794 41.56C556.114 41.72 556.486 41.8 556.91 41.8C557.206 41.8 557.478 41.752 557.726 41.656C557.974 41.56 558.242 41.388 558.53 41.14L559.262 42.16C559.046 42.36 558.798 42.532 558.518 42.676C558.246 42.812 557.958 42.92 557.654 43C557.35 43.08 557.05 43.12 556.754 43.12Z" fill="#818187"/>
<rect x="584" y="24" width="78" height="28" rx="12" fill="#F6F6F6"/>
<path d="M601.128 43V34.6H602.688V43H601.128ZM601.848 39.556V38.14H606.18V39.556H601.848ZM601.848 36.04V34.6H606.696V36.04H601.848ZM608.573 43V36.676H610.049V43H608.573ZM609.293 35.332C608.997 35.332 608.765 35.26 608.597 35.116C608.437 34.964 608.357 34.752 608.357 34.48C608.357 34.224 608.441 34.016 608.609 33.856C608.777 33.696 609.005 33.616 609.293 33.616C609.597 33.616 609.829 33.692 609.989 33.844C610.157 33.988 610.241 34.2 610.241 34.48C610.241 34.728 610.157 34.932 609.989 35.092C609.821 35.252 609.589 35.332 609.293 35.332ZM614.704 43.12C614.144 43.12 613.64 42.98 613.192 42.7C612.752 42.412 612.4 42.024 612.136 41.536C611.88 41.04 611.752 40.472 611.752 39.832C611.752 39.2 611.88 38.636 612.136 38.14C612.392 37.644 612.74 37.256 613.18 36.976C613.628 36.688 614.132 36.544 614.692 36.544C614.996 36.544 615.288 36.592 615.568 36.688C615.856 36.784 616.112 36.916 616.336 37.084C616.56 37.244 616.736 37.424 616.864 37.624C617 37.824 617.076 38.032 617.092 38.248L616.696 38.296V34.12H618.172V43H616.744L616.708 41.512L616.996 41.536C616.988 41.736 616.916 41.928 616.78 42.112C616.652 42.296 616.484 42.464 616.276 42.616C616.068 42.768 615.824 42.892 615.544 42.988C615.272 43.076 614.992 43.12 614.704 43.12ZM614.992 41.872C615.336 41.872 615.64 41.784 615.904 41.608C616.168 41.432 616.372 41.192 616.516 40.888C616.668 40.584 616.744 40.232 616.744 39.832C616.744 39.44 616.668 39.092 616.516 38.788C616.372 38.476 616.168 38.236 615.904 38.068C615.64 37.892 615.336 37.804 614.992 37.804C614.648 37.804 614.344 37.892 614.08 38.068C613.816 38.236 613.608 38.476 613.456 38.788C613.312 39.092 613.24 39.44 613.24 39.832C613.24 40.232 613.312 40.584 613.456 40.888C613.608 41.192 613.816 41.432 614.08 41.608C614.344 41.784 614.648 41.872 614.992 41.872ZM623.052 43.12C622.388 43.12 621.8 42.98 621.288 42.7C620.784 42.42 620.388 42.04 620.1 41.56C619.82 41.072 619.68 40.516 619.68 39.892C619.68 39.396 619.76 38.944 619.92 38.536C620.08 38.128 620.3 37.776 620.58 37.48C620.868 37.176 621.208 36.944 621.6 36.784C622 36.616 622.436 36.532 622.908 36.532C623.324 36.532 623.712 36.612 624.072 36.772C624.432 36.932 624.744 37.152 625.008 37.432C625.272 37.704 625.472 38.032 625.608 38.416C625.752 38.792 625.82 39.204 625.812 39.652L625.8 40.168H620.676L620.4 39.16H624.564L624.372 39.364V39.1C624.348 38.852 624.268 38.636 624.132 38.452C623.996 38.26 623.82 38.112 623.604 38.008C623.396 37.896 623.164 37.84 622.908 37.84C622.516 37.84 622.184 37.916 621.912 38.068C621.648 38.22 621.448 38.44 621.312 38.728C621.176 39.008 621.108 39.36 621.108 39.784C621.108 40.192 621.192 40.548 621.36 40.852C621.536 41.156 621.78 41.392 622.092 41.56C622.412 41.72 622.784 41.8 623.208 41.8C623.504 41.8 623.776 41.752 624.024 41.656C624.272 41.56 624.54 41.388 624.828 41.14L625.56 42.16C625.344 42.36 625.096 42.532 624.816 42.676C624.544 42.812 624.256 42.92 623.952 43C623.648 43.08 623.348 43.12 623.052 43.12ZM627.371 43V34.12H628.859V43H627.371ZM631.002 43V36.676H632.478V43H631.002ZM631.722 35.332C631.426 35.332 631.194 35.26 631.026 35.116C630.866 34.964 630.786 34.752 630.786 34.48C630.786 34.224 630.87 34.016 631.038 33.856C631.206 33.696 631.434 33.616 631.722 33.616C632.026 33.616 632.258 33.692 632.418 33.844C632.586 33.988 632.67 34.2 632.67 34.48C632.67 34.728 632.586 34.932 632.418 35.092C632.25 35.252 632.018 35.332 631.722 35.332ZM635.273 43V35.068H636.749V43H635.273ZM634.025 38.044V36.676H638.129V38.044H634.025ZM640.453 45.76L641.797 42.652L641.809 43.636L638.689 36.676H640.393L642.133 40.804C642.189 40.908 642.245 41.048 642.301 41.224C642.357 41.392 642.405 41.56 642.445 41.728L642.145 41.824C642.201 41.672 642.261 41.512 642.325 41.344C642.389 41.168 642.449 40.988 642.505 40.804L643.993 36.676H645.709L643.069 43L641.989 45.76H640.453Z" fill="#818187"/>
<rect x="670" y="24" width="78" height="28" rx="12" fill="#F6F6F6"/>
<path d="M690.692 43.12C690.084 43.12 689.528 43.016 689.024 42.808C688.52 42.6 688.084 42.304 687.716 41.92C687.348 41.528 687.06 41.068 686.852 40.54C686.652 40.004 686.552 39.42 686.552 38.788C686.552 38.18 686.66 37.616 686.876 37.096C687.092 36.576 687.392 36.12 687.776 35.728C688.16 35.336 688.608 35.032 689.12 34.816C689.632 34.6 690.188 34.492 690.788 34.492C691.196 34.492 691.592 34.552 691.976 34.672C692.36 34.792 692.712 34.96 693.032 35.176C693.352 35.384 693.62 35.628 693.836 35.908L692.84 37C692.632 36.784 692.416 36.604 692.192 36.46C691.976 36.308 691.748 36.196 691.508 36.124C691.276 36.044 691.036 36.004 690.788 36.004C690.42 36.004 690.072 36.072 689.744 36.208C689.424 36.344 689.144 36.536 688.904 36.784C688.672 37.032 688.488 37.328 688.352 37.672C688.216 38.008 688.148 38.384 688.148 38.8C688.148 39.224 688.212 39.608 688.34 39.952C688.476 40.296 688.664 40.592 688.904 40.84C689.152 41.088 689.444 41.28 689.78 41.416C690.124 41.544 690.5 41.608 690.908 41.608C691.172 41.608 691.428 41.572 691.676 41.5C691.924 41.428 692.152 41.328 692.36 41.2C692.576 41.064 692.772 40.908 692.948 40.732L693.716 41.968C693.524 42.184 693.268 42.38 692.948 42.556C692.628 42.732 692.268 42.872 691.868 42.976C691.476 43.072 691.084 43.12 690.692 43.12ZM695.307 43V34.12H696.771V37.972L696.495 38.116C696.575 37.828 696.731 37.568 696.963 37.336C697.195 37.096 697.471 36.904 697.791 36.76C698.111 36.616 698.439 36.544 698.775 36.544C699.255 36.544 699.655 36.64 699.975 36.832C700.303 37.024 700.547 37.312 700.707 37.696C700.875 38.08 700.959 38.56 700.959 39.136V43H699.483V39.244C699.483 38.924 699.439 38.66 699.351 38.452C699.263 38.236 699.127 38.08 698.943 37.984C698.759 37.88 698.535 37.832 698.271 37.84C698.055 37.84 697.855 37.876 697.671 37.948C697.495 38.012 697.339 38.108 697.203 38.236C697.075 38.356 696.971 38.496 696.891 38.656C696.819 38.816 696.783 38.992 696.783 39.184V43H696.051C695.907 43 695.771 43 695.643 43C695.523 43 695.411 43 695.307 43ZM705.248 43.12C704.728 43.12 704.256 42.976 703.832 42.688C703.408 42.4 703.068 42.008 702.812 41.512C702.556 41.016 702.428 40.452 702.428 39.82C702.428 39.188 702.556 38.624 702.812 38.128C703.068 37.632 703.416 37.244 703.856 36.964C704.296 36.684 704.792 36.544 705.344 36.544C705.664 36.544 705.956 36.592 706.22 36.688C706.484 36.776 706.716 36.904 706.916 37.072C707.116 37.24 707.28 37.432 707.408 37.648C707.544 37.864 707.636 38.096 707.684 38.344L707.36 38.26V36.676H708.848V43H707.348V41.488L707.696 41.428C707.64 41.644 707.536 41.856 707.384 42.064C707.24 42.264 707.056 42.444 706.832 42.604C706.616 42.756 706.372 42.88 706.1 42.976C705.836 43.072 705.552 43.12 705.248 43.12ZM705.656 41.812C706 41.812 706.304 41.728 706.568 41.56C706.832 41.392 707.036 41.16 707.18 40.864C707.332 40.56 707.408 40.212 707.408 39.82C707.408 39.436 707.332 39.096 707.18 38.8C707.036 38.504 706.832 38.272 706.568 38.104C706.304 37.936 706 37.852 705.656 37.852C705.312 37.852 705.008 37.936 704.744 38.104C704.488 38.272 704.288 38.504 704.144 38.8C704 39.096 703.928 39.436 703.928 39.82C703.928 40.212 704 40.56 704.144 40.864C704.288 41.16 704.488 41.392 704.744 41.56C705.008 41.728 705.312 41.812 705.656 41.812ZM710.799 43V36.676H712.251L712.275 38.692L712.071 38.236C712.159 37.916 712.311 37.628 712.527 37.372C712.743 37.116 712.991 36.916 713.271 36.772C713.559 36.62 713.859 36.544 714.171 36.544C714.307 36.544 714.435 36.556 714.555 36.58C714.683 36.604 714.787 36.632 714.867 36.664L714.471 38.284C714.383 38.236 714.275 38.196 714.147 38.164C714.019 38.132 713.891 38.116 713.763 38.116C713.563 38.116 713.371 38.156 713.187 38.236C713.011 38.308 712.855 38.412 712.719 38.548C712.583 38.684 712.475 38.844 712.395 39.028C712.323 39.204 712.287 39.404 712.287 39.628V43H710.799ZM716.102 43V34.12H717.59V43H716.102ZM722.411 43.12C721.747 43.12 721.159 42.98 720.647 42.7C720.143 42.42 719.747 42.04 719.459 41.56C719.179 41.072 719.039 40.516 719.039 39.892C719.039 39.396 719.119 38.944 719.279 38.536C719.439 38.128 719.659 37.776 719.939 37.48C720.227 37.176 720.567 36.944 720.959 36.784C721.359 36.616 721.795 36.532 722.267 36.532C722.683 36.532 723.071 36.612 723.431 36.772C723.791 36.932 724.103 37.152 724.367 37.432C724.631 37.704 724.831 38.032 724.967 38.416C725.111 38.792 725.179 39.204 725.171 39.652L725.159 40.168H720.035L719.759 39.16H723.923L723.731 39.364V39.1C723.707 38.852 723.627 38.636 723.491 38.452C723.355 38.26 723.179 38.112 722.963 38.008C722.755 37.896 722.523 37.84 722.267 37.84C721.875 37.84 721.543 37.916 721.271 38.068C721.007 38.22 720.807 38.44 720.671 38.728C720.535 39.008 720.467 39.36 720.467 39.784C720.467 40.192 720.551 40.548 720.719 40.852C720.895 41.156 721.139 41.392 721.451 41.56C721.771 41.72 722.143 41.8 722.567 41.8C722.863 41.8 723.135 41.752 723.383 41.656C723.631 41.56 723.899 41.388 724.187 41.14L724.919 42.16C724.703 42.36 724.455 42.532 724.175 42.676C723.903 42.812 723.615 42.92 723.311 43C723.007 43.08 722.707 43.12 722.411 43.12ZM728.83 43.12C728.27 43.12 727.766 43.028 727.318 42.844C726.878 42.652 726.518 42.38 726.238 42.028L727.198 41.2C727.438 41.472 727.706 41.668 728.002 41.788C728.298 41.908 728.61 41.968 728.938 41.968C729.074 41.968 729.194 41.952 729.298 41.92C729.41 41.888 729.506 41.84 729.586 41.776C729.666 41.712 729.726 41.64 729.766 41.56C729.814 41.472 729.838 41.376 729.838 41.272C729.838 41.08 729.766 40.928 729.622 40.816C729.542 40.76 729.414 40.7 729.238 40.636C729.07 40.572 728.85 40.508 728.578 40.444C728.146 40.332 727.786 40.204 727.498 40.06C727.21 39.908 726.986 39.74 726.826 39.556C726.69 39.404 726.586 39.232 726.514 39.04C726.45 38.848 726.418 38.64 726.418 38.416C726.418 38.136 726.478 37.884 726.598 37.66C726.726 37.428 726.898 37.228 727.114 37.06C727.33 36.892 727.582 36.764 727.87 36.676C728.158 36.588 728.458 36.544 728.77 36.544C729.09 36.544 729.398 36.584 729.694 36.664C729.998 36.744 730.278 36.86 730.534 37.012C730.798 37.156 731.022 37.332 731.206 37.54L730.39 38.44C730.238 38.296 730.07 38.168 729.886 38.056C729.71 37.944 729.53 37.856 729.346 37.792C729.162 37.72 728.99 37.684 728.83 37.684C728.678 37.684 728.542 37.7 728.422 37.732C728.302 37.756 728.202 37.796 728.122 37.852C728.042 37.908 727.978 37.98 727.93 38.068C727.89 38.148 727.87 38.244 727.87 38.356C727.878 38.452 727.902 38.544 727.942 38.632C727.99 38.712 728.054 38.78 728.134 38.836C728.222 38.892 728.354 38.956 728.53 39.028C728.706 39.1 728.934 39.168 729.214 39.232C729.606 39.336 729.934 39.452 730.198 39.58C730.462 39.708 730.67 39.856 730.822 40.024C730.974 40.168 731.082 40.336 731.146 40.528C731.21 40.72 731.242 40.932 731.242 41.164C731.242 41.54 731.134 41.876 730.918 42.172C730.71 42.468 730.422 42.7 730.054 42.868C729.694 43.036 729.286 43.12 728.83 43.12Z" fill="#818187"/>
<path d="M26.484 84.592V77.344L26.832 77.608L25.272 78.544L24.996 77.704L27.072 76.48H27.432V84.592H26.484ZM25.248 85V84.088H28.692V85H25.248ZM33.1681 85.12C32.5121 85.12 31.9521 84.948 31.4881 84.604C31.0321 84.26 30.6801 83.768 30.4321 83.128C30.1921 82.48 30.0721 81.704 30.0721 80.8C30.0721 79.896 30.1921 79.124 30.4321 78.484C30.6801 77.836 31.0321 77.34 31.4881 76.996C31.9521 76.652 32.5121 76.48 33.1681 76.48C33.8161 76.48 34.3721 76.652 34.8361 76.996C35.3001 77.34 35.6521 77.836 35.8921 78.484C36.1401 79.124 36.2641 79.896 36.2641 80.8C36.2641 81.704 36.1401 82.48 35.8921 83.128C35.6521 83.768 35.3001 84.26 34.8361 84.604C34.3721 84.948 33.8161 85.12 33.1681 85.12ZM33.1681 84.244C33.8561 84.244 34.3841 83.944 34.7521 83.344C35.1281 82.744 35.3161 81.896 35.3161 80.8C35.3161 79.704 35.1281 78.856 34.7521 78.256C34.3841 77.656 33.8561 77.356 33.1681 77.356C32.4721 77.356 31.9361 77.656 31.5601 78.256C31.1921 78.856 31.0081 79.704 31.0081 80.8C31.0081 81.896 31.1921 82.744 31.5601 83.344C31.9361 83.944 32.4721 84.244 33.1681 84.244ZM40.5158 85.12C39.8598 85.12 39.2998 84.948 38.8358 84.604C38.3798 84.26 38.0278 83.768 37.7798 83.128C37.5398 82.48 37.4198 81.704 37.4198 80.8C37.4198 79.896 37.5398 79.124 37.7798 78.484C38.0278 77.836 38.3798 77.34 38.8358 76.996C39.2998 76.652 39.8598 76.48 40.5158 76.48C41.1638 76.48 41.7198 76.652 42.1838 76.996C42.6478 77.34 42.9998 77.836 43.2398 78.484C43.4878 79.124 43.6118 79.896 43.6118 80.8C43.6118 81.704 43.4878 82.48 43.2398 83.128C42.9998 83.768 42.6478 84.26 42.1838 84.604C41.7198 84.948 41.1638 85.12 40.5158 85.12ZM40.5158 84.244C41.2038 84.244 41.7318 83.944 42.0998 83.344C42.4758 82.744 42.6638 81.896 42.6638 80.8C42.6638 79.704 42.4758 78.856 42.0998 78.256C41.7318 77.656 41.2038 77.356 40.5158 77.356C39.8198 77.356 39.2838 77.656 38.9078 78.256C38.5398 78.856 38.3558 79.704 38.3558 80.8C38.3558 81.896 38.5398 82.744 38.9078 83.344C39.2838 83.944 39.8198 84.244 40.5158 84.244ZM47.8634 85.12C47.2074 85.12 46.6474 84.948 46.1834 84.604C45.7274 84.26 45.3754 83.768 45.1274 83.128C44.8874 82.48 44.7674 81.704 44.7674 80.8C44.7674 79.896 44.8874 79.124 45.1274 78.484C45.3754 77.836 45.7274 77.34 46.1834 76.996C46.6474 76.652 47.2074 76.48 47.8634 76.48C48.5114 76.48 49.0674 76.652 49.5314 76.996C49.9954 77.34 50.3474 77.836 50.5874 78.484C50.8354 79.124 50.9594 79.896 50.9594 80.8C50.9594 81.704 50.8354 82.48 50.5874 83.128C50.3474 83.768 49.9954 84.26 49.5314 84.604C49.0674 84.948 48.5114 85.12 47.8634 85.12ZM47.8634 84.244C48.5514 84.244 49.0794 83.944 49.4474 83.344C49.8234 82.744 50.0114 81.896 50.0114 80.8C50.0114 79.704 49.8234 78.856 49.4474 78.256C49.0794 77.656 48.5514 77.356 47.8634 77.356C47.1674 77.356 46.6314 77.656 46.2554 78.256C45.8874 78.856 45.7034 79.704 45.7034 80.8C45.7034 81.896 45.8874 82.744 46.2554 83.344C46.6314 83.944 47.1674 84.244 47.8634 84.244Z" fill="#A3A3A6"/>
<rect x="60.25" y="79.75" width="687.5" height="0.5" stroke="#1A1A21" stroke-opacity="0.08" stroke-width="0.5" stroke-dasharray="4 4"/>
<path d="M27.48 125.036C26.96 125.036 26.484 124.928 26.052 124.712C25.628 124.488 25.288 124.192 25.032 123.824C24.776 123.448 24.648 123.036 24.648 122.588C24.648 122.34 24.684 122.108 24.756 121.892C24.836 121.668 24.948 121.464 25.092 121.28C25.244 121.088 25.428 120.916 25.644 120.764C25.86 120.604 26.108 120.468 26.388 120.356L26.316 120.608C26.1 120.544 25.904 120.452 25.728 120.332C25.552 120.212 25.404 120.076 25.284 119.924C25.164 119.764 25.072 119.592 25.008 119.408C24.944 119.216 24.912 119.02 24.912 118.82C24.912 118.412 25.024 118.04 25.248 117.704C25.48 117.368 25.788 117.1 26.172 116.9C26.564 116.7 27 116.6 27.48 116.6C27.952 116.6 28.38 116.7 28.764 116.9C29.156 117.1 29.464 117.368 29.688 117.704C29.92 118.04 30.036 118.412 30.036 118.82C30.036 119.02 30.004 119.212 29.94 119.396C29.884 119.58 29.796 119.752 29.676 119.912C29.556 120.064 29.404 120.2 29.22 120.32C29.044 120.44 28.844 120.536 28.62 120.608L28.584 120.404C28.84 120.492 29.072 120.616 29.28 120.776C29.496 120.928 29.68 121.1 29.832 121.292C29.984 121.484 30.1 121.692 30.18 121.916C30.268 122.132 30.312 122.356 30.312 122.588C30.312 123.044 30.184 123.46 29.928 123.836C29.68 124.204 29.34 124.496 28.908 124.712C28.484 124.928 28.008 125.036 27.48 125.036ZM27.48 124.148C27.84 124.148 28.16 124.08 28.44 123.944C28.728 123.8 28.952 123.608 29.112 123.368C29.28 123.128 29.364 122.86 29.364 122.564C29.364 122.26 29.28 121.992 29.112 121.76C28.952 121.52 28.728 121.332 28.44 121.196C28.16 121.052 27.84 120.98 27.48 120.98C27.12 120.98 26.796 121.052 26.508 121.196C26.228 121.332 26.004 121.52 25.836 121.76C25.676 121.992 25.596 122.26 25.596 122.564C25.596 122.86 25.676 123.128 25.836 123.368C26.004 123.6 26.228 123.788 26.508 123.932C26.796 124.076 27.12 124.148 27.48 124.148ZM27.48 120.176C27.784 120.176 28.056 120.12 28.296 120.008C28.544 119.896 28.736 119.74 28.872 119.54C29.016 119.34 29.088 119.108 29.088 118.844C29.088 118.588 29.016 118.36 28.872 118.16C28.736 117.952 28.544 117.788 28.296 117.668C28.056 117.548 27.784 117.488 27.48 117.488C27.168 117.488 26.888 117.548 26.64 117.668C26.4 117.788 26.208 117.952 26.064 118.16C25.928 118.36 25.86 118.588 25.86 118.844C25.86 119.1 25.928 119.332 26.064 119.54C26.208 119.74 26.4 119.896 26.64 120.008C26.888 120.12 27.168 120.176 27.48 120.176ZM34.6329 125.12C33.9769 125.12 33.4169 124.948 32.9529 124.604C32.4969 124.26 32.1449 123.768 31.8969 123.128C31.6569 122.48 31.5369 121.704 31.5369 120.8C31.5369 119.896 31.6569 119.124 31.8969 118.484C32.1449 117.836 32.4969 117.34 32.9529 116.996C33.4169 116.652 33.9769 116.48 34.6329 116.48C35.2809 116.48 35.8369 116.652 36.3009 116.996C36.7649 117.34 37.1169 117.836 37.3569 118.484C37.6049 119.124 37.7289 119.896 37.7289 120.8C37.7289 121.704 37.6049 122.48 37.3569 123.128C37.1169 123.768 36.7649 124.26 36.3009 124.604C35.8369 124.948 35.2809 125.12 34.6329 125.12ZM34.6329 124.244C35.3209 124.244 35.8489 123.944 36.2169 123.344C36.5929 122.744 36.7809 121.896 36.7809 120.8C36.7809 119.704 36.5929 118.856 36.2169 118.256C35.8489 117.656 35.3209 117.356 34.6329 117.356C33.9369 117.356 33.4009 117.656 33.0249 118.256C32.6569 118.856 32.4729 119.704 32.4729 120.8C32.4729 121.896 32.6569 122.744 33.0249 123.344C33.4009 123.944 33.9369 124.244 34.6329 124.244ZM41.9806 125.12C41.3246 125.12 40.7646 124.948 40.3006 124.604C39.8446 124.26 39.4926 123.768 39.2446 123.128C39.0046 122.48 38.8846 121.704 38.8846 120.8C38.8846 119.896 39.0046 119.124 39.2446 118.484C39.4926 117.836 39.8446 117.34 40.3006 116.996C40.7646 116.652 41.3246 116.48 41.9806 116.48C42.6286 116.48 43.1846 116.652 43.6486 116.996C44.1126 117.34 44.4646 117.836 44.7046 118.484C44.9526 119.124 45.0766 119.896 45.0766 120.8C45.0766 121.704 44.9526 122.48 44.7046 123.128C44.4646 123.768 44.1126 124.26 43.6486 124.604C43.1846 124.948 42.6286 125.12 41.9806 125.12ZM41.9806 124.244C42.6686 124.244 43.1966 123.944 43.5646 123.344C43.9406 122.744 44.1286 121.896 44.1286 120.8C44.1286 119.704 43.9406 118.856 43.5646 118.256C43.1966 117.656 42.6686 117.356 41.9806 117.356C41.2846 117.356 40.7486 117.656 40.3726 118.256C40.0046 118.856 39.8206 119.704 39.8206 120.8C39.8206 121.896 40.0046 122.744 40.3726 123.344C40.7486 123.944 41.2846 124.244 41.9806 124.244Z" fill="#A3A3A6"/>
<rect x="60.25" y="119.75" width="687.5" height="0.5" stroke="#1A1A21" stroke-opacity="0.08" stroke-width="0.5" stroke-dasharray="4 4"/>
<path d="M27.504 165.06C27.088 165.06 26.7 164.988 26.34 164.844C25.988 164.7 25.68 164.496 25.416 164.232C25.16 163.96 24.96 163.644 24.816 163.284C24.672 162.916 24.6 162.516 24.6 162.084C24.6 161.876 24.628 161.648 24.684 161.4C24.74 161.144 24.824 160.868 24.936 160.572C25.048 160.268 25.184 159.952 25.344 159.624C25.504 159.296 25.688 158.956 25.896 158.604L27.12 156.528H28.032L28.08 156.648L26.724 158.928C26.532 159.248 26.356 159.564 26.196 159.876C26.044 160.188 25.9 160.504 25.764 160.824C25.628 161.136 25.496 161.456 25.368 161.784L25.2 160.92C25.352 160.664 25.516 160.44 25.692 160.248C25.876 160.056 26.072 159.892 26.28 159.756C26.488 159.612 26.708 159.508 26.94 159.444C27.18 159.372 27.424 159.336 27.672 159.336C28.16 159.336 28.6 159.464 28.992 159.72C29.392 159.968 29.712 160.3 29.952 160.716C30.192 161.132 30.312 161.596 30.312 162.108C30.312 162.668 30.188 163.172 29.94 163.62C29.692 164.068 29.352 164.42 28.92 164.676C28.496 164.932 28.024 165.06 27.504 165.06ZM27.468 164.184C27.828 164.184 28.152 164.096 28.44 163.92C28.728 163.744 28.956 163.508 29.124 163.212C29.292 162.908 29.376 162.568 29.376 162.192C29.376 161.84 29.292 161.516 29.124 161.22C28.956 160.916 28.728 160.676 28.44 160.5C28.152 160.316 27.832 160.224 27.48 160.224C27.104 160.224 26.768 160.312 26.472 160.488C26.184 160.664 25.956 160.9 25.788 161.196C25.62 161.492 25.536 161.82 25.536 162.18C25.536 162.556 25.62 162.896 25.788 163.2C25.956 163.496 26.184 163.736 26.472 163.92C26.768 164.096 27.1 164.184 27.468 164.184ZM34.5626 165.12C33.9066 165.12 33.3466 164.948 32.8826 164.604C32.4266 164.26 32.0746 163.768 31.8266 163.128C31.5866 162.48 31.4666 161.704 31.4666 160.8C31.4666 159.896 31.5866 159.124 31.8266 158.484C32.0746 157.836 32.4266 157.34 32.8826 156.996C33.3466 156.652 33.9066 156.48 34.5626 156.48C35.2106 156.48 35.7666 156.652 36.2306 156.996C36.6946 157.34 37.0466 157.836 37.2866 158.484C37.5346 159.124 37.6586 159.896 37.6586 160.8C37.6586 161.704 37.5346 162.48 37.2866 163.128C37.0466 163.768 36.6946 164.26 36.2306 164.604C35.7666 164.948 35.2106 165.12 34.5626 165.12ZM34.5626 164.244C35.2506 164.244 35.7786 163.944 36.1466 163.344C36.5226 162.744 36.7106 161.896 36.7106 160.8C36.7106 159.704 36.5226 158.856 36.1466 158.256C35.7786 157.656 35.2506 157.356 34.5626 157.356C33.8666 157.356 33.3306 157.656 32.9546 158.256C32.5866 158.856 32.4026 159.704 32.4026 160.8C32.4026 161.896 32.5866 162.744 32.9546 163.344C33.3306 163.944 33.8666 164.244 34.5626 164.244ZM41.9103 165.12C41.2543 165.12 40.6943 164.948 40.2303 164.604C39.7743 164.26 39.4223 163.768 39.1743 163.128C38.9343 162.48 38.8143 161.704 38.8143 160.8C38.8143 159.896 38.9343 159.124 39.1743 158.484C39.4223 157.836 39.7743 157.34 40.2303 156.996C40.6943 156.652 41.2543 156.48 41.9103 156.48C42.5583 156.48 43.1143 156.652 43.5783 156.996C44.0423 157.34 44.3943 157.836 44.6343 158.484C44.8823 159.124 45.0063 159.896 45.0063 160.8C45.0063 161.704 44.8823 162.48 44.6343 163.128C44.3943 163.768 44.0423 164.26 43.5783 164.604C43.1143 164.948 42.5583 165.12 41.9103 165.12ZM41.9103 164.244C42.5983 164.244 43.1263 163.944 43.4943 163.344C43.8703 162.744 44.0583 161.896 44.0583 160.8C44.0583 159.704 43.8703 158.856 43.4943 158.256C43.1263 157.656 42.5983 157.356 41.9103 157.356C41.2143 157.356 40.6783 157.656 40.3023 158.256C39.9343 158.856 39.7503 159.704 39.7503 160.8C39.7503 161.896 39.9343 162.744 40.3023 163.344C40.6783 163.944 41.2143 164.244 41.9103 164.244Z" fill="#A3A3A6"/>
<rect x="60.25" y="159.75" width="687.5" height="0.5" stroke="#1A1A21" stroke-opacity="0.08" stroke-width="0.5" stroke-dasharray="4 4"/>
<path d="M28.56 205V197.716L28.824 197.8L25.344 202.048L25.248 201.832H30.936V202.72H24.9L24.456 201.832L28.74 196.6H29.472V205H28.56ZM35.1134 205.12C34.4574 205.12 33.8974 204.948 33.4334 204.604C32.9774 204.26 32.6254 203.768 32.3774 203.128C32.1374 202.48 32.0174 201.704 32.0174 200.8C32.0174 199.896 32.1374 199.124 32.3774 198.484C32.6254 197.836 32.9774 197.34 33.4334 196.996C33.8974 196.652 34.4574 196.48 35.1134 196.48C35.7614 196.48 36.3174 196.652 36.7814 196.996C37.2454 197.34 37.5974 197.836 37.8374 198.484C38.0854 199.124 38.2094 199.896 38.2094 200.8C38.2094 201.704 38.0854 202.48 37.8374 203.128C37.5974 203.768 37.2454 204.26 36.7814 204.604C36.3174 204.948 35.7614 205.12 35.1134 205.12ZM35.1134 204.244C35.8014 204.244 36.3294 203.944 36.6974 203.344C37.0734 202.744 37.2614 201.896 37.2614 200.8C37.2614 199.704 37.0734 198.856 36.6974 198.256C36.3294 197.656 35.8014 197.356 35.1134 197.356C34.4174 197.356 33.8814 197.656 33.5054 198.256C33.1374 198.856 32.9534 199.704 32.9534 200.8C32.9534 201.896 33.1374 202.744 33.5054 203.344C33.8814 203.944 34.4174 204.244 35.1134 204.244ZM42.4611 205.12C41.8051 205.12 41.2451 204.948 40.7811 204.604C40.3251 204.26 39.9731 203.768 39.7251 203.128C39.4851 202.48 39.3651 201.704 39.3651 200.8C39.3651 199.896 39.4851 199.124 39.7251 198.484C39.9731 197.836 40.3251 197.34 40.7811 196.996C41.2451 196.652 41.8051 196.48 42.4611 196.48C43.1091 196.48 43.6651 196.652 44.1291 196.996C44.5931 197.34 44.9451 197.836 45.1851 198.484C45.4331 199.124 45.5571 199.896 45.5571 200.8C45.5571 201.704 45.4331 202.48 45.1851 203.128C44.9451 203.768 44.5931 204.26 44.1291 204.604C43.6651 204.948 43.1091 205.12 42.4611 205.12ZM42.4611 204.244C43.1491 204.244 43.6771 203.944 44.0451 203.344C44.4211 202.744 44.6091 201.896 44.6091 200.8C44.6091 199.704 44.4211 198.856 44.0451 198.256C43.6771 197.656 43.1491 197.356 42.4611 197.356C41.7651 197.356 41.2291 197.656 40.8531 198.256C40.4851 198.856 40.3011 199.704 40.3011 200.8C40.3011 201.896 40.4851 202.744 40.8531 203.344C41.2291 203.944 41.7651 204.244 42.4611 204.244Z" fill="#A3A3A6"/>
<rect x="60.25" y="199.75" width="687.5" height="0.5" stroke="#1A1A21" stroke-opacity="0.08" stroke-width="0.5" stroke-dasharray="4 4"/>
<path d="M25.116 245L24.828 244.304L27.66 241.124C27.796 240.972 27.936 240.8 28.08 240.608C28.232 240.416 28.372 240.216 28.5 240.008C28.636 239.792 28.744 239.58 28.824 239.372C28.904 239.164 28.944 238.96 28.944 238.76C28.944 238.464 28.88 238.216 28.752 238.016C28.624 237.808 28.44 237.648 28.2 237.536C27.968 237.424 27.696 237.368 27.384 237.368C27.112 237.368 26.844 237.432 26.58 237.56C26.316 237.688 26.076 237.884 25.86 238.148C25.644 238.412 25.476 238.748 25.356 239.156L24.612 238.712C24.756 238.224 24.968 237.816 25.248 237.488C25.528 237.152 25.86 236.9 26.244 236.732C26.628 236.564 27.04 236.48 27.48 236.48C27.944 236.48 28.36 236.576 28.728 236.768C29.096 236.952 29.388 237.216 29.604 237.56C29.82 237.896 29.928 238.284 29.928 238.724C29.928 238.916 29.904 239.108 29.856 239.3C29.816 239.492 29.752 239.684 29.664 239.876C29.576 240.068 29.468 240.264 29.34 240.464C29.22 240.664 29.076 240.868 28.908 241.076C28.748 241.284 28.568 241.5 28.368 241.724L25.956 244.412L25.812 244.1H30.192V245H25.116ZM34.2462 245.12C33.5902 245.12 33.0302 244.948 32.5662 244.604C32.1102 244.26 31.7582 243.768 31.5102 243.128C31.2702 242.48 31.1502 241.704 31.1502 240.8C31.1502 239.896 31.2702 239.124 31.5102 238.484C31.7582 237.836 32.1102 237.34 32.5662 236.996C33.0302 236.652 33.5902 236.48 34.2462 236.48C34.8942 236.48 35.4502 236.652 35.9142 236.996C36.3782 237.34 36.7302 237.836 36.9702 238.484C37.2182 239.124 37.3422 239.896 37.3422 240.8C37.3422 241.704 37.2182 242.48 36.9702 243.128C36.7302 243.768 36.3782 244.26 35.9142 244.604C35.4502 244.948 34.8942 245.12 34.2462 245.12ZM34.2462 244.244C34.9342 244.244 35.4622 243.944 35.8302 243.344C36.2062 242.744 36.3942 241.896 36.3942 240.8C36.3942 239.704 36.2062 238.856 35.8302 238.256C35.4622 237.656 34.9342 237.356 34.2462 237.356C33.5502 237.356 33.0142 237.656 32.6382 238.256C32.2702 238.856 32.0862 239.704 32.0862 240.8C32.0862 241.896 32.2702 242.744 32.6382 243.344C33.0142 243.944 33.5502 244.244 34.2462 244.244ZM41.5939 245.12C40.9379 245.12 40.3779 244.948 39.9139 244.604C39.4579 244.26 39.1059 243.768 38.8579 243.128C38.6179 242.48 38.4979 241.704 38.4979 240.8C38.4979 239.896 38.6179 239.124 38.8579 238.484C39.1059 237.836 39.4579 237.34 39.9139 236.996C40.3779 236.652 40.9379 236.48 41.5939 236.48C42.2419 236.48 42.7979 236.652 43.2619 236.996C43.7259 237.34 44.0779 237.836 44.3179 238.484C44.5659 239.124 44.6899 239.896 44.6899 240.8C44.6899 241.704 44.5659 242.48 44.3179 243.128C44.0779 243.768 43.7259 244.26 43.2619 244.604C42.7979 244.948 42.2419 245.12 41.5939 245.12ZM41.5939 244.244C42.2819 244.244 42.8099 243.944 43.1779 243.344C43.5539 242.744 43.7419 241.896 43.7419 240.8C43.7419 239.704 43.5539 238.856 43.1779 238.256C42.8099 237.656 42.2819 237.356 41.5939 237.356C40.8979 237.356 40.3619 237.656 39.9859 238.256C39.6179 238.856 39.4339 239.704 39.4339 240.8C39.4339 241.896 39.6179 242.744 39.9859 243.344C40.3619 243.944 40.8979 244.244 41.5939 244.244Z" fill="#A3A3A6"/>
<rect x="60.25" y="239.75" width="687.5" height="0.5" stroke="#1A1A21" stroke-opacity="0.08" stroke-width="0.5" stroke-dasharray="4 4"/>
<path d="M27.672 285.12C27.016 285.12 26.456 284.948 25.992 284.604C25.536 284.26 25.184 283.768 24.936 283.128C24.696 282.48 24.576 281.704 24.576 280.8C24.576 279.896 24.696 279.124 24.936 278.484C25.184 277.836 25.536 277.34 25.992 276.996C26.456 276.652 27.016 276.48 27.672 276.48C28.32 276.48 28.876 276.652 29.34 276.996C29.804 277.34 30.156 277.836 30.396 278.484C30.644 279.124 30.768 279.896 30.768 280.8C30.768 281.704 30.644 282.48 30.396 283.128C30.156 283.768 29.804 284.26 29.34 284.604C28.876 284.948 28.32 285.12 27.672 285.12ZM27.672 284.244C28.36 284.244 28.888 283.944 29.256 283.344C29.632 282.744 29.82 281.896 29.82 280.8C29.82 279.704 29.632 278.856 29.256 278.256C28.888 277.656 28.36 277.356 27.672 277.356C26.976 277.356 26.44 277.656 26.064 278.256C25.696 278.856 25.512 279.704 25.512 280.8C25.512 281.896 25.696 282.744 26.064 283.344C26.44 283.944 26.976 284.244 27.672 284.244Z" fill="#A3A3A6"/>
<rect x="60" y="279.5" width="688" height="1" fill="#D1D1D3"/>
<rect x="69" y="150" width="12" height="130" fill="#F1F1F2"/>
<rect x="83" y="137" width="12" height="143" fill="#E6E6E7"/>
<rect x="127.5" y="211" width="12" height="69" fill="#F1F1F2"/>
<rect x="141.5" y="190" width="12" height="90" fill="#E6E6E7"/>
<rect x="186" y="172" width="12" height="108" fill="#F1F1F2"/>
<rect x="200" y="189" width="12" height="91" fill="#E6E6E7"/>
<rect x="244.5" y="208" width="12" height="72" fill="#F1F1F2"/>
<rect x="258.5" y="175" width="12" height="105" fill="#E6E6E7"/>
<rect x="303" y="183" width="12" height="97" fill="#F1F1F2"/>
<rect x="317" y="165" width="12" height="115" fill="#E6E6E7"/>
<rect x="361.5" y="150" width="12" height="130" fill="#FFB800"/>
<rect x="375.5" y="110" width="12" height="170" fill="#FF8600"/>
<rect x="420" y="169" width="12" height="111" fill="#F1F1F2"/>
<rect x="434" y="141" width="12" height="139" fill="#E6E6E7"/>
<rect x="478.5" y="188" width="12" height="92" fill="#F1F1F2"/>
<rect x="492.5" y="157" width="12" height="123" fill="#E6E6E7"/>
<rect x="537" y="214" width="12" height="66" fill="#F1F1F2"/>
<rect x="551" y="186" width="12" height="94" fill="#E6E6E7"/>
<rect x="595.5" y="183" width="12" height="97" fill="#F1F1F2"/>
<rect x="609.5" y="141" width="12" height="139" fill="#E6E6E7"/>
<rect x="654" y="204" width="12" height="76" fill="#F1F1F2"/>
<rect x="668" y="222" width="12" height="58" fill="#E6E6E7"/>
<rect x="712.5" y="179" width="12" height="101" fill="#F1F1F2"/>
<rect x="726.5" y="161" width="12" height="119" fill="#E6E6E7"/>
<path d="M71.893 297.11C71.6437 297.11 71.409 297.077 71.189 297.011C70.969 296.952 70.7637 296.864 70.573 296.747C70.3823 296.622 70.21 296.472 70.056 296.296C69.902 296.12 69.7663 295.926 69.649 295.713L70.221 295.119C70.353 295.339 70.485 295.522 70.617 295.669C70.7563 295.816 70.892 295.933 71.024 296.021C71.1633 296.109 71.3027 296.171 71.442 296.208C71.5887 296.245 71.739 296.263 71.893 296.263C72.1937 296.263 72.4577 296.193 72.685 296.054C72.9197 295.907 73.0993 295.709 73.224 295.46C73.356 295.203 73.422 294.914 73.422 294.591V290.114H72.025V289.3H75.435V290.114H74.302V294.657C74.302 295.009 74.2433 295.335 74.126 295.636C74.0087 295.937 73.8437 296.197 73.631 296.417C73.4183 296.637 73.1653 296.809 72.872 296.934C72.5787 297.051 72.2523 297.11 71.893 297.11ZM75.398 297L78.346 289.3H79.325L82.251 297H81.316L79.435 292.006C79.3837 291.867 79.325 291.705 79.259 291.522C79.2004 291.331 79.1344 291.137 79.061 290.939C78.995 290.734 78.929 290.536 78.863 290.345C78.8044 290.154 78.7494 289.986 78.698 289.839H78.918C78.8594 290.022 78.797 290.209 78.731 290.4C78.6724 290.583 78.61 290.77 78.544 290.961C78.478 291.144 78.412 291.328 78.346 291.511C78.28 291.694 78.214 291.878 78.148 292.061L76.278 297H75.398ZM76.652 294.877L76.971 294.041H80.612L80.964 294.877H76.652ZM83.6574 297V289.3H84.4384L89.4764 295.966L89.3224 296.164C89.3004 296.047 89.2821 295.871 89.2674 295.636C89.2601 295.401 89.2491 295.137 89.2344 294.844C89.2271 294.543 89.2197 294.232 89.2124 293.909C89.2051 293.586 89.1977 293.271 89.1904 292.963C89.1904 292.655 89.1904 292.376 89.1904 292.127V289.3H90.0484V297H89.2454L84.2294 290.422L84.3614 290.191C84.3834 290.484 84.4017 290.774 84.4164 291.06C84.4384 291.346 84.4531 291.621 84.4604 291.885C84.4751 292.149 84.4861 292.391 84.4934 292.611C84.5007 292.831 84.5044 293.018 84.5044 293.172C84.5117 293.326 84.5154 293.436 84.5154 293.502V297H83.6574Z" fill="#A3A3A6"/>
<path d="M128.833 297V289.3H129.691V297H128.833ZM129.262 293.568V292.721H133.156V293.568H129.262ZM129.262 290.136V289.3H133.673V290.136H129.262ZM135.353 297V289.3H140.017V290.136H136.211V296.164H139.995V297H135.353ZM135.749 293.458V292.622H139.401V293.458H135.749ZM141.938 297V289.3H145.062C145.51 289.3 145.895 289.381 146.217 289.542C146.547 289.696 146.8 289.92 146.976 290.213C147.152 290.499 147.24 290.84 147.24 291.236C147.24 291.661 147.119 292.028 146.877 292.336C146.635 292.637 146.305 292.846 145.887 292.963L145.865 292.754C146.225 292.82 146.536 292.948 146.8 293.139C147.064 293.322 147.27 293.55 147.416 293.821C147.57 294.092 147.647 294.397 147.647 294.734C147.647 295.079 147.589 295.39 147.471 295.669C147.354 295.948 147.185 296.186 146.965 296.384C146.753 296.582 146.492 296.736 146.184 296.846C145.884 296.949 145.546 297 145.172 297H141.938ZM142.796 296.164H145.106C145.436 296.164 145.722 296.109 145.964 295.999C146.214 295.882 146.404 295.717 146.536 295.504C146.676 295.291 146.745 295.046 146.745 294.767C146.745 294.503 146.672 294.272 146.525 294.074C146.386 293.876 146.188 293.722 145.931 293.612C145.682 293.502 145.389 293.447 145.051 293.447H142.796V296.164ZM142.796 292.611H144.996C145.26 292.611 145.495 292.56 145.7 292.457C145.906 292.347 146.067 292.2 146.184 292.017C146.302 291.826 146.36 291.614 146.36 291.379C146.36 291.005 146.232 290.704 145.975 290.477C145.726 290.25 145.374 290.136 144.919 290.136H142.796V292.611Z" fill="#A3A3A6"/>
<path d="M185.533 297V289.3H186.369L189.328 294.107L188.932 294.096L191.924 289.3H192.705V297H191.847V293.48C191.847 292.82 191.858 292.226 191.88 291.698C191.902 291.17 191.942 290.646 192.001 290.125L192.155 290.433L189.394 294.767H188.8L186.116 290.488L186.237 290.125C186.296 290.616 186.336 291.122 186.358 291.643C186.38 292.156 186.391 292.769 186.391 293.48V297H185.533ZM194.117 297L197.065 289.3H198.044L200.97 297H200.035L198.154 292.006C198.103 291.867 198.044 291.705 197.978 291.522C197.92 291.331 197.854 291.137 197.78 290.939C197.714 290.734 197.648 290.536 197.582 290.345C197.524 290.154 197.469 289.986 197.417 289.839H197.637C197.579 290.022 197.516 290.209 197.45 290.4C197.392 290.583 197.329 290.77 197.263 290.961C197.197 291.144 197.131 291.328 197.065 291.511C196.999 291.694 196.933 291.878 196.867 292.061L194.997 297H194.117ZM195.371 294.877L195.69 294.041H199.331L199.683 294.877H195.371ZM202.377 297V289.3H205.391C205.838 289.3 206.241 289.406 206.601 289.619C206.967 289.824 207.257 290.107 207.47 290.466C207.682 290.825 207.789 291.232 207.789 291.687C207.789 292.112 207.686 292.497 207.481 292.842C207.275 293.187 206.997 293.462 206.645 293.667C206.293 293.865 205.897 293.964 205.457 293.964H203.235V297H202.377ZM207.074 297L205.138 293.612L205.963 293.326L208.097 297H207.074ZM203.235 293.128H205.534C205.805 293.128 206.043 293.066 206.249 292.941C206.454 292.816 206.615 292.648 206.733 292.435C206.85 292.215 206.909 291.966 206.909 291.687C206.909 291.386 206.839 291.119 206.7 290.884C206.56 290.649 206.366 290.466 206.117 290.334C205.875 290.202 205.596 290.136 205.281 290.136H203.235V293.128Z" fill="#A3A3A6"/>
<path d="M245.375 297L248.323 289.3H249.302L252.228 297H251.293L249.412 292.006C249.361 291.867 249.302 291.705 249.236 291.522C249.177 291.331 249.111 291.137 249.038 290.939C248.972 290.734 248.906 290.536 248.84 290.345C248.781 290.154 248.726 289.986 248.675 289.839H248.895C248.836 290.022 248.774 290.209 248.708 290.4C248.649 290.583 248.587 290.77 248.521 290.961C248.455 291.144 248.389 291.328 248.323 291.511C248.257 291.694 248.191 291.878 248.125 292.061L246.255 297H245.375ZM246.629 294.877L246.948 294.041H250.589L250.941 294.877H246.629ZM253.634 297V289.3H256.681C257.085 289.3 257.448 289.399 257.77 289.597C258.093 289.795 258.35 290.07 258.54 290.422C258.731 290.767 258.826 291.155 258.826 291.588C258.826 292.043 258.731 292.45 258.54 292.809C258.35 293.161 258.093 293.443 257.77 293.656C257.448 293.861 257.085 293.964 256.681 293.964H254.492V297H253.634ZM254.492 293.128H256.725C256.953 293.128 257.154 293.062 257.33 292.93C257.514 292.791 257.66 292.607 257.77 292.38C257.88 292.145 257.935 291.878 257.935 291.577C257.935 291.306 257.88 291.064 257.77 290.851C257.66 290.631 257.514 290.459 257.33 290.334C257.154 290.202 256.953 290.136 256.725 290.136H254.492V293.128ZM260.477 297V289.3H263.491C263.939 289.3 264.342 289.406 264.701 289.619C265.068 289.824 265.358 290.107 265.57 290.466C265.783 290.825 265.889 291.232 265.889 291.687C265.889 292.112 265.787 292.497 265.581 292.842C265.376 293.187 265.097 293.462 264.745 293.667C264.393 293.865 263.997 293.964 263.557 293.964H261.335V297H260.477ZM265.174 297L263.238 293.612L264.063 293.326L266.197 297H265.174ZM261.335 293.128H263.634C263.906 293.128 264.144 293.066 264.349 292.941C264.555 292.816 264.716 292.648 264.833 292.435C264.951 292.215 265.009 291.966 265.009 291.687C265.009 291.386 264.94 291.119 264.8 290.884C264.661 290.649 264.467 290.466 264.217 290.334C263.975 290.202 263.697 290.136 263.381 290.136H261.335V293.128Z" fill="#A3A3A6"/>
<path d="M303.933 297V289.3H304.769L307.728 294.107L307.332 294.096L310.324 289.3H311.105V297H310.247V293.48C310.247 292.82 310.258 292.226 310.28 291.698C310.302 291.17 310.342 290.646 310.401 290.125L310.555 290.433L307.794 294.767H307.2L304.516 290.488L304.637 290.125C304.695 290.616 304.736 291.122 304.758 291.643C304.78 292.156 304.791 292.769 304.791 293.48V297H303.933ZM312.517 297L315.465 289.3H316.444L319.37 297H318.435L316.554 292.006C316.503 291.867 316.444 291.705 316.378 291.522C316.32 291.331 316.254 291.137 316.18 290.939C316.114 290.734 316.048 290.536 315.982 290.345C315.924 290.154 315.869 289.986 315.817 289.839H316.037C315.979 290.022 315.916 290.209 315.85 290.4C315.792 290.583 315.729 290.77 315.663 290.961C315.597 291.144 315.531 291.328 315.465 291.511C315.399 291.694 315.333 291.878 315.267 292.061L313.397 297H312.517ZM313.771 294.877L314.09 294.041H317.731L318.083 294.877H313.771ZM321.997 297V293.161L322.074 293.7L318.961 289.3H320.006L322.558 292.952L322.327 292.93L324.67 289.3H325.66L322.679 293.821L322.844 293.073V297H321.997Z" fill="#A3A3A6"/>
<path d="M365.393 297.11C365.144 297.11 364.909 297.077 364.689 297.011C364.469 296.952 364.264 296.864 364.073 296.747C363.882 296.622 363.71 296.472 363.556 296.296C363.402 296.12 363.266 295.926 363.149 295.713L363.721 295.119C363.853 295.339 363.985 295.522 364.117 295.669C364.256 295.816 364.392 295.933 364.524 296.021C364.663 296.109 364.803 296.171 364.942 296.208C365.089 296.245 365.239 296.263 365.393 296.263C365.694 296.263 365.958 296.193 366.185 296.054C366.42 295.907 366.599 295.709 366.724 295.46C366.856 295.203 366.922 294.914 366.922 294.591V290.114H365.525V289.3H368.935V290.114H367.802V294.657C367.802 295.009 367.743 295.335 367.626 295.636C367.509 295.937 367.344 296.197 367.131 296.417C366.918 296.637 366.665 296.809 366.372 296.934C366.079 297.051 365.752 297.11 365.393 297.11ZM373.542 297.077C372.963 297.077 372.446 296.949 371.991 296.692C371.537 296.428 371.177 296.069 370.913 295.614C370.657 295.152 370.528 294.631 370.528 294.052V289.3H371.386V293.953C371.386 294.386 371.482 294.774 371.672 295.119C371.863 295.464 372.12 295.735 372.442 295.933C372.772 296.131 373.139 296.23 373.542 296.23C373.968 296.23 374.345 296.131 374.675 295.933C375.013 295.735 375.277 295.464 375.467 295.119C375.658 294.774 375.753 294.386 375.753 293.953V289.3H376.578V294.052C376.578 294.631 376.446 295.152 376.182 295.614C375.926 296.069 375.566 296.428 375.104 296.692C374.65 296.949 374.129 297.077 373.542 297.077ZM378.801 297V289.3H379.582L384.62 295.966L384.466 296.164C384.444 296.047 384.426 295.871 384.411 295.636C384.404 295.401 384.393 295.137 384.378 294.844C384.371 294.543 384.363 294.232 384.356 293.909C384.349 293.586 384.341 293.271 384.334 292.963C384.334 292.655 384.334 292.376 384.334 292.127V289.3H385.192V297H384.389L379.373 290.422L379.505 290.191C379.527 290.484 379.545 290.774 379.56 291.06C379.582 291.346 379.597 291.621 379.604 291.885C379.619 292.149 379.63 292.391 379.637 292.611C379.644 292.831 379.648 293.018 379.648 293.172C379.655 293.326 379.659 293.436 379.659 293.502V297H378.801Z" fill="#A3A3A6"/>
<path d="M425.093 297.11C424.844 297.11 424.609 297.077 424.389 297.011C424.169 296.952 423.964 296.864 423.773 296.747C423.583 296.622 423.41 296.472 423.256 296.296C423.102 296.12 422.967 295.926 422.849 295.713L423.421 295.119C423.553 295.339 423.685 295.522 423.817 295.669C423.957 295.816 424.092 295.933 424.224 296.021C424.364 296.109 424.503 296.171 424.642 296.208C424.789 296.245 424.939 296.263 425.093 296.263C425.394 296.263 425.658 296.193 425.885 296.054C426.12 295.907 426.3 295.709 426.424 295.46C426.556 295.203 426.622 294.914 426.622 294.591V290.114H425.225V289.3H428.635V290.114H427.502V294.657C427.502 295.009 427.444 295.335 427.326 295.636C427.209 295.937 427.044 296.197 426.831 296.417C426.619 296.637 426.366 296.809 426.072 296.934C425.779 297.051 425.453 297.11 425.093 297.11ZM433.242 297.077C432.663 297.077 432.146 296.949 431.691 296.692C431.237 296.428 430.877 296.069 430.613 295.614C430.357 295.152 430.228 294.631 430.228 294.052V289.3H431.086V293.953C431.086 294.386 431.182 294.774 431.372 295.119C431.563 295.464 431.82 295.735 432.142 295.933C432.472 296.131 432.839 296.23 433.242 296.23C433.668 296.23 434.045 296.131 434.375 295.933C434.713 295.735 434.977 295.464 435.167 295.119C435.358 294.774 435.453 294.386 435.453 293.953V289.3H436.278V294.052C436.278 294.631 436.146 295.152 435.882 295.614C435.626 296.069 435.266 296.428 434.804 296.692C434.35 296.949 433.829 297.077 433.242 297.077ZM438.501 297V289.3H439.359V296.164H443.055V297H438.501Z" fill="#A3A3A6"/>
<path d="M480.175 297L483.123 289.3H484.102L487.028 297H486.093L484.212 292.006C484.161 291.867 484.102 291.705 484.036 291.522C483.977 291.331 483.911 291.137 483.838 290.939C483.772 290.734 483.706 290.536 483.64 290.345C483.581 290.154 483.526 289.986 483.475 289.839H483.695C483.636 290.022 483.574 290.209 483.508 290.4C483.449 290.583 483.387 290.77 483.321 290.961C483.255 291.144 483.189 291.328 483.123 291.511C483.057 291.694 482.991 291.878 482.925 292.061L481.055 297H480.175ZM481.429 294.877L481.748 294.041H485.389L485.741 294.877H481.429ZM491.178 297.077C490.599 297.077 490.082 296.949 489.627 296.692C489.173 296.428 488.813 296.069 488.549 295.614C488.293 295.152 488.164 294.631 488.164 294.052V289.3H489.022V293.953C489.022 294.386 489.118 294.774 489.308 295.119C489.499 295.464 489.756 295.735 490.078 295.933C490.408 296.131 490.775 296.23 491.178 296.23C491.604 296.23 491.981 296.131 492.311 295.933C492.649 295.735 492.913 295.464 493.103 295.119C493.294 294.774 493.389 294.386 493.389 293.953V289.3H494.214V294.052C494.214 294.631 494.082 295.152 493.818 295.614C493.562 296.069 493.202 296.428 492.74 296.692C492.286 296.949 491.765 297.077 491.178 297.077ZM499.847 297.11C499.283 297.11 498.758 297.011 498.274 296.813C497.79 296.615 497.365 296.34 496.998 295.988C496.632 295.636 496.346 295.222 496.14 294.745C495.942 294.261 495.843 293.737 495.843 293.172C495.843 292.607 495.942 292.087 496.14 291.61C496.346 291.126 496.624 290.708 496.976 290.356C497.336 290.004 497.754 289.733 498.23 289.542C498.714 289.344 499.231 289.245 499.781 289.245C500.17 289.245 500.551 289.3 500.925 289.41C501.307 289.52 501.651 289.674 501.959 289.872C502.267 290.07 502.517 290.294 502.707 290.543L502.135 291.126C501.93 290.913 501.699 290.73 501.442 290.576C501.186 290.422 500.914 290.301 500.628 290.213C500.35 290.125 500.071 290.081 499.792 290.081C499.36 290.081 498.956 290.158 498.582 290.312C498.216 290.466 497.893 290.682 497.614 290.961C497.336 291.232 497.119 291.559 496.965 291.94C496.811 292.314 496.734 292.725 496.734 293.172C496.734 293.605 496.811 294.012 496.965 294.393C497.127 294.767 497.35 295.097 497.636 295.383C497.93 295.662 498.267 295.878 498.648 296.032C499.03 296.186 499.44 296.263 499.88 296.263C500.225 296.263 500.548 296.212 500.848 296.109C501.156 296.006 501.424 295.863 501.651 295.68C501.879 295.489 502.055 295.269 502.179 295.02C502.304 294.771 502.366 294.503 502.366 294.217V293.832L502.542 294.052H499.836V293.205H503.224C503.232 293.264 503.239 293.333 503.246 293.414C503.254 293.487 503.257 293.564 503.257 293.645C503.265 293.718 503.268 293.788 503.268 293.854C503.268 294.331 503.18 294.771 503.004 295.174C502.828 295.57 502.583 295.915 502.267 296.208C501.959 296.494 501.6 296.718 501.189 296.879C500.779 297.033 500.331 297.11 499.847 297.11Z" fill="#A3A3A6"/>
<path d="M542.977 297.11C542.588 297.11 542.222 297.055 541.877 296.945C541.532 296.835 541.217 296.67 540.931 296.45C540.645 296.23 540.392 295.959 540.172 295.636L540.766 294.976C541.111 295.467 541.463 295.812 541.822 296.01C542.189 296.208 542.599 296.307 543.054 296.307C543.384 296.307 543.685 296.252 543.956 296.142C544.227 296.032 544.44 295.878 544.594 295.68C544.748 295.482 544.825 295.255 544.825 294.998C544.825 294.829 544.796 294.679 544.737 294.547C544.686 294.415 544.605 294.298 544.495 294.195C544.385 294.092 544.249 294.001 544.088 293.92C543.927 293.839 543.74 293.766 543.527 293.7C543.322 293.634 543.091 293.568 542.834 293.502C542.46 293.414 542.13 293.311 541.844 293.194C541.565 293.069 541.327 292.919 541.129 292.743C540.938 292.567 540.792 292.365 540.689 292.138C540.594 291.903 540.546 291.628 540.546 291.313C540.546 291.012 540.608 290.734 540.733 290.477C540.865 290.22 541.045 290 541.272 289.817C541.499 289.626 541.767 289.48 542.075 289.377C542.383 289.274 542.713 289.223 543.065 289.223C543.461 289.223 543.813 289.278 544.121 289.388C544.436 289.491 544.715 289.645 544.957 289.85C545.199 290.055 545.408 290.301 545.584 290.587L544.979 291.181C544.825 290.939 544.649 290.73 544.451 290.554C544.26 290.378 544.048 290.246 543.813 290.158C543.586 290.063 543.333 290.015 543.054 290.015C542.731 290.015 542.445 290.07 542.196 290.18C541.954 290.29 541.763 290.444 541.624 290.642C541.485 290.833 541.415 291.053 541.415 291.302C541.415 291.485 541.448 291.65 541.514 291.797C541.58 291.936 541.683 292.061 541.822 292.171C541.969 292.274 542.156 292.369 542.383 292.457C542.618 292.538 542.896 292.615 543.219 292.688C543.6 292.776 543.941 292.882 544.242 293.007C544.55 293.132 544.81 293.282 545.023 293.458C545.243 293.627 545.408 293.825 545.518 294.052C545.635 294.279 545.694 294.54 545.694 294.833C545.694 295.288 545.58 295.687 545.353 296.032C545.126 296.369 544.807 296.633 544.396 296.824C543.993 297.015 543.52 297.11 542.977 297.11ZM547.425 297V289.3H552.089V290.136H548.283V296.164H552.067V297H547.425ZM547.821 293.458V292.622H551.473V293.458H547.821ZM554.01 297V289.3H557.057C557.461 289.3 557.824 289.399 558.146 289.597C558.469 289.795 558.726 290.07 558.916 290.422C559.107 290.767 559.202 291.155 559.202 291.588C559.202 292.043 559.107 292.45 558.916 292.809C558.726 293.161 558.469 293.443 558.146 293.656C557.824 293.861 557.461 293.964 557.057 293.964H554.868V297H554.01ZM554.868 293.128H557.101C557.329 293.128 557.53 293.062 557.706 292.93C557.89 292.791 558.036 292.607 558.146 292.38C558.256 292.145 558.311 291.878 558.311 291.577C558.311 291.306 558.256 291.064 558.146 290.851C558.036 290.631 557.89 290.459 557.706 290.334C557.53 290.202 557.329 290.136 557.101 290.136H554.868V293.128Z" fill="#A3A3A6"/>
<path d="M600.612 297.11C600.069 297.11 599.567 297.015 599.105 296.824C598.65 296.626 598.25 296.351 597.906 295.999C597.568 295.647 597.304 295.233 597.114 294.756C596.93 294.272 596.839 293.744 596.839 293.172C596.839 292.6 596.93 292.076 597.114 291.599C597.304 291.115 597.568 290.697 597.906 290.345C598.25 289.986 598.65 289.711 599.105 289.52C599.567 289.322 600.069 289.223 600.612 289.223C601.162 289.223 601.664 289.322 602.119 289.52C602.581 289.711 602.98 289.986 603.318 290.345C603.662 290.697 603.926 291.115 604.11 291.599C604.3 292.076 604.396 292.6 604.396 293.172C604.396 293.737 604.3 294.261 604.11 294.745C603.926 295.222 603.662 295.64 603.318 295.999C602.98 296.351 602.581 296.626 602.119 296.824C601.664 297.015 601.162 297.11 600.612 297.11ZM600.612 296.263C601.03 296.263 601.415 296.19 601.767 296.043C602.126 295.889 602.434 295.673 602.691 295.394C602.947 295.115 603.145 294.789 603.285 294.415C603.431 294.034 603.505 293.619 603.505 293.172C603.505 292.717 603.431 292.303 603.285 291.929C603.145 291.548 602.947 291.218 602.691 290.939C602.434 290.66 602.126 290.444 601.767 290.29C601.415 290.136 601.03 290.059 600.612 290.059C600.194 290.059 599.805 290.136 599.446 290.29C599.094 290.444 598.789 290.66 598.533 290.939C598.276 291.218 598.078 291.548 597.939 291.929C597.799 292.303 597.73 292.717 597.73 293.172C597.73 293.619 597.799 294.034 597.939 294.415C598.078 294.789 598.276 295.115 598.533 295.394C598.789 295.673 599.094 295.889 599.446 296.043C599.805 296.19 600.194 296.263 600.612 296.263ZM609.26 297.11C608.71 297.11 608.204 297.015 607.742 296.824C607.28 296.626 606.88 296.351 606.543 295.999C606.205 295.64 605.941 295.218 605.751 294.734C605.567 294.25 605.476 293.722 605.476 293.15C605.476 292.585 605.567 292.068 605.751 291.599C605.941 291.122 606.209 290.708 606.554 290.356C606.898 289.997 607.298 289.722 607.753 289.531C608.207 289.34 608.706 289.245 609.249 289.245C609.608 289.245 609.964 289.304 610.316 289.421C610.668 289.531 610.99 289.685 611.284 289.883C611.584 290.081 611.83 290.308 612.021 290.565L611.427 291.181C611.243 290.961 611.031 290.77 610.789 290.609C610.554 290.448 610.305 290.323 610.041 290.235C609.777 290.147 609.513 290.103 609.249 290.103C608.838 290.103 608.453 290.18 608.094 290.334C607.742 290.481 607.437 290.69 607.181 290.961C606.924 291.232 606.722 291.555 606.576 291.929C606.436 292.303 606.367 292.71 606.367 293.15C606.367 293.605 606.436 294.023 606.576 294.404C606.722 294.785 606.928 295.115 607.192 295.394C607.463 295.665 607.778 295.878 608.138 296.032C608.504 296.179 608.911 296.252 609.359 296.252C609.623 296.252 609.887 296.215 610.151 296.142C610.415 296.061 610.657 295.951 610.877 295.812C611.097 295.673 611.284 295.515 611.438 295.339L611.878 296.054C611.709 296.259 611.482 296.443 611.196 296.604C610.917 296.758 610.609 296.883 610.272 296.978C609.934 297.066 609.597 297.11 609.26 297.11ZM614.9 297V290.136H612.7V289.3H618.046V290.136H615.758V297H614.9Z" fill="#A3A3A6"/>
<path d="M656.133 297V289.3H656.914L661.952 295.966L661.798 296.164C661.776 296.047 661.758 295.871 661.743 295.636C661.736 295.401 661.725 295.137 661.71 294.844C661.703 294.543 661.695 294.232 661.688 293.909C661.681 293.586 661.673 293.271 661.666 292.963C661.666 292.655 661.666 292.376 661.666 292.127V289.3H662.524V297H661.721L656.705 290.422L656.837 290.191C656.859 290.484 656.877 290.774 656.892 291.06C656.914 291.346 656.929 291.621 656.936 291.885C656.951 292.149 656.962 292.391 656.969 292.611C656.976 292.831 656.98 293.018 656.98 293.172C656.987 293.326 656.991 293.436 656.991 293.502V297H656.133ZM667.97 297.11C667.428 297.11 666.925 297.015 666.463 296.824C666.009 296.626 665.609 296.351 665.264 295.999C664.927 295.647 664.663 295.233 664.472 294.756C664.289 294.272 664.197 293.744 664.197 293.172C664.197 292.6 664.289 292.076 664.472 291.599C664.663 291.115 664.927 290.697 665.264 290.345C665.609 289.986 666.009 289.711 666.463 289.52C666.925 289.322 667.428 289.223 667.97 289.223C668.52 289.223 669.023 289.322 669.477 289.52C669.939 289.711 670.339 289.986 670.676 290.345C671.021 290.697 671.285 291.115 671.468 291.599C671.659 292.076 671.754 292.6 671.754 293.172C671.754 293.737 671.659 294.261 671.468 294.745C671.285 295.222 671.021 295.64 670.676 295.999C670.339 296.351 669.939 296.626 669.477 296.824C669.023 297.015 668.52 297.11 667.97 297.11ZM667.97 296.263C668.388 296.263 668.773 296.19 669.125 296.043C669.485 295.889 669.793 295.673 670.049 295.394C670.306 295.115 670.504 294.789 670.643 294.415C670.79 294.034 670.863 293.619 670.863 293.172C670.863 292.717 670.79 292.303 670.643 291.929C670.504 291.548 670.306 291.218 670.049 290.939C669.793 290.66 669.485 290.444 669.125 290.29C668.773 290.136 668.388 290.059 667.97 290.059C667.552 290.059 667.164 290.136 666.804 290.29C666.452 290.444 666.148 290.66 665.891 290.939C665.635 291.218 665.437 291.548 665.297 291.929C665.158 292.303 665.088 292.717 665.088 293.172C665.088 293.619 665.158 294.034 665.297 294.415C665.437 294.789 665.635 295.115 665.891 295.394C666.148 295.673 666.452 295.889 666.804 296.043C667.164 296.19 667.552 296.263 667.97 296.263ZM675.218 297L672.237 289.3H673.205L675.119 294.316C675.207 294.543 675.284 294.745 675.35 294.921C675.416 295.097 675.475 295.266 675.526 295.427C675.585 295.581 675.64 295.735 675.691 295.889C675.742 296.043 675.797 296.212 675.856 296.395L675.57 296.406C675.643 296.157 675.713 295.926 675.779 295.713C675.852 295.5 675.926 295.284 675.999 295.064C676.08 294.837 676.179 294.573 676.296 294.272L678.199 289.3H679.167L676.098 297H675.218Z" fill="#A3A3A6"/>
<path d="M716.833 297V289.3H719.737C720.265 289.3 720.746 289.395 721.178 289.586C721.618 289.769 722 290.033 722.322 290.378C722.645 290.723 722.894 291.13 723.07 291.599C723.246 292.068 723.334 292.585 723.334 293.15C723.334 293.715 723.246 294.235 723.07 294.712C722.894 295.181 722.645 295.588 722.322 295.933C722.007 296.27 721.629 296.534 721.189 296.725C720.749 296.908 720.265 297 719.737 297H716.833ZM717.691 296.318L717.592 296.164H719.682C720.086 296.164 720.456 296.094 720.793 295.955C721.138 295.808 721.431 295.603 721.673 295.339C721.923 295.068 722.113 294.749 722.245 294.382C722.385 294.015 722.454 293.605 722.454 293.15C722.454 292.695 722.385 292.285 722.245 291.918C722.113 291.551 721.923 291.236 721.673 290.972C721.424 290.701 721.131 290.495 720.793 290.356C720.456 290.209 720.086 290.136 719.682 290.136H717.559L717.691 290.004V296.318ZM725.008 297V289.3H729.672V290.136H725.866V296.164H729.65V297H725.008ZM725.404 293.458V292.622H729.056V293.458H725.404ZM734.783 297.11C734.233 297.11 733.727 297.015 733.265 296.824C732.803 296.626 732.403 296.351 732.066 295.999C731.729 295.64 731.465 295.218 731.274 294.734C731.091 294.25 730.999 293.722 730.999 293.15C730.999 292.585 731.091 292.068 731.274 291.599C731.465 291.122 731.732 290.708 732.077 290.356C732.422 289.997 732.821 289.722 733.276 289.531C733.731 289.34 734.229 289.245 734.772 289.245C735.131 289.245 735.487 289.304 735.839 289.421C736.191 289.531 736.514 289.685 736.807 289.883C737.108 290.081 737.353 290.308 737.544 290.565L736.95 291.181C736.767 290.961 736.554 290.77 736.312 290.609C736.077 290.448 735.828 290.323 735.564 290.235C735.3 290.147 735.036 290.103 734.772 290.103C734.361 290.103 733.976 290.18 733.617 290.334C733.265 290.481 732.961 290.69 732.704 290.961C732.447 291.232 732.246 291.555 732.099 291.929C731.96 292.303 731.89 292.71 731.89 293.15C731.89 293.605 731.96 294.023 732.099 294.404C732.246 294.785 732.451 295.115 732.715 295.394C732.986 295.665 733.302 295.878 733.661 296.032C734.028 296.179 734.435 296.252 734.882 296.252C735.146 296.252 735.41 296.215 735.674 296.142C735.938 296.061 736.18 295.951 736.4 295.812C736.62 295.673 736.807 295.515 736.961 295.339L737.401 296.054C737.232 296.259 737.005 296.443 736.719 296.604C736.44 296.758 736.132 296.883 735.795 296.978C735.458 297.066 735.12 297.11 734.783 297.11Z" fill="#A3A3A6"/>
</svg>
