<svg width="21" height="20" viewBox="0 0 21 20" fill="none" xmlns="http://www.w3.org/2000/svg">
<path d="M18.7667 5.51667C18.6821 5.31304 18.5203 5.15123 18.3167 5.06667C18.2165 5.02397 18.1089 5.00132 18 5H13.8334C13.6124 5 13.4004 5.0878 13.2441 5.24408C13.0878 5.40036 13 5.61232 13 5.83333C13 6.05435 13.0878 6.26631 13.2441 6.42259C13.4004 6.57887 13.6124 6.66667 13.8334 6.66667H15.9917L11.3334 11.325L8.5917 8.575C8.51423 8.49689 8.42206 8.4349 8.32051 8.39259C8.21896 8.35028 8.11004 8.3285 8.00003 8.3285C7.89002 8.3285 7.7811 8.35028 7.67955 8.39259C7.578 8.4349 7.48583 8.49689 7.40836 8.575L2.40836 13.575C2.33026 13.6525 2.26826 13.7446 2.22595 13.8462C2.18365 13.9477 2.16187 14.0567 2.16187 14.1667C2.16187 14.2767 2.18365 14.3856 2.22595 14.4871C2.26826 14.5887 2.33026 14.6809 2.40836 14.7583C2.48583 14.8364 2.578 14.8984 2.67955 14.9407C2.7811 14.9831 2.89002 15.0048 3.00003 15.0048C3.11004 15.0048 3.21896 14.9831 3.32051 14.9407C3.42206 14.8984 3.51423 14.8364 3.5917 14.7583L8.00003 10.3417L10.7417 13.0917C10.8192 13.1698 10.9113 13.2318 11.0129 13.2741C11.1144 13.3164 11.2234 13.3382 11.3334 13.3382C11.4434 13.3382 11.5523 13.3164 11.6538 13.2741C11.7554 13.2318 11.8476 13.1698 11.925 13.0917L17.1667 7.84167V10C17.1667 10.221 17.2545 10.433 17.4108 10.5893C17.5671 10.7455 17.779 10.8333 18 10.8333C18.221 10.8333 18.433 10.7455 18.5893 10.5893C18.7456 10.433 18.8334 10.221 18.8334 10V5.83333C18.832 5.72444 18.8094 5.61685 18.7667 5.51667Z" fill="#35DB95"/>
</svg>
