<svg width="26" height="26" viewBox="0 0 26 26" fill="none" xmlns="http://www.w3.org/2000/svg">
<path opacity="0.4" d="M13.0001 25.5005C6.10637 25.5005 0.500122 19.893 0.500122 13.0005C0.500122 6.10799 6.10637 0.500488 13.0001 0.500488C19.8926 0.500488 25.5001 6.10799 25.5001 13.0005C25.5001 19.893 19.8926 25.5005 13.0001 25.5005Z" fill="#EBECEF"/>
<path d="M14.8031 18.2766C14.5644 18.2766 14.3244 18.1853 14.1419 18.0028L9.78312 13.6653C9.60687 13.4891 9.50812 13.2503 9.50812 13.0003C9.50812 12.7516 9.60687 12.5128 9.78312 12.3366L14.1419 7.99658C14.5081 7.63158 15.1006 7.63158 15.4669 7.99908C15.8319 8.36658 15.8306 8.96033 15.4644 9.32533L11.7731 13.0003L15.4644 16.6753C15.8306 17.0403 15.8319 17.6328 15.4669 18.0003C15.2844 18.1853 15.0431 18.2766 14.8031 18.2766Z" fill="black"/>
</svg>
