<svg width="24" height="24" viewBox="0 0 24 24" fill="none" xmlns="http://www.w3.org/2000/svg">
<g clip-path="url(#clip0_544_2414)">
<path d="M15.3476 23.0001H8.69042C8.04739 23.0001 7.55566 22.5242 7.55566 21.9019C7.55566 21.2796 8.04739 20.8037 8.69042 20.8037H15.3476C15.9907 20.8037 16.4824 21.2796 16.4824 21.9019C16.4824 22.5242 15.9528 23.0001 15.3476 23.0001Z" fill="#8D8D8D"/>
<path d="M12.019 23.0001C11.376 23.0001 10.8843 22.5242 10.8843 21.9019V18.8271C10.8843 18.2048 11.376 17.7289 12.019 17.7289C12.6621 17.7289 13.1538 18.2048 13.1538 18.8271V21.9019C13.1538 22.5242 12.6242 23.0001 12.019 23.0001Z" fill="#8D8D8D"/>
<path d="M12.0189 19.9252C7.59338 19.9252 4 16.4476 4 12.1648V10.005C4 9.38273 4.49173 8.90686 5.13475 8.90686C5.77778 8.90686 6.2695 9.38273 6.2695 10.005V12.1648C6.2695 15.2396 8.84161 17.7288 12.0189 17.7288C15.1962 17.7288 17.7683 15.2396 17.7683 12.1648V10.005C17.7683 9.38273 18.26 8.90686 18.9031 8.90686C19.5461 8.90686 20.0378 9.38273 20.0378 10.005V12.1648C20 16.4476 16.4066 19.9252 12.0189 19.9252Z" fill="#8D8D8D"/>
<path d="M12.0187 16.411C9.82488 16.411 8.00928 14.6539 8.00928 12.5308V5.9418C8.00928 5.3195 8.501 4.84363 9.14403 4.84363C9.78706 4.84363 10.2788 5.3195 10.2788 5.9418V12.5308C10.2788 13.446 11.0731 14.2147 12.0187 14.2147C12.9644 14.2147 13.7587 13.446 13.7587 12.5308V5.9418C13.7587 5.3195 14.2504 4.84363 14.8934 4.84363C15.5365 4.84363 16.0282 5.3195 16.0282 5.9418V12.5308C16.0282 14.6539 14.2126 16.411 12.0187 16.411Z" fill="#8D8D8D"/>
<path d="M14.8934 12.5674C14.2504 12.5674 13.7587 12.0915 13.7587 11.4692V4.8802C13.7587 3.96506 12.9644 3.19634 12.0187 3.19634C11.0731 3.19634 10.2788 3.96506 10.2788 4.8802V11.4692C10.2788 12.0915 9.78706 12.5674 9.14403 12.5674C8.501 12.5674 8.00928 12.0915 8.00928 11.4692V4.8802C8.00928 2.75707 9.78706 1 12.0187 1C14.2504 1 16.0282 2.75707 16.0282 4.8802V11.4692C16.0282 12.0915 15.4986 12.5674 14.8934 12.5674Z" fill="#8D8D8D"/>
</g>
<defs>
<clipPath id="clip0_544_2414">
<rect width="16" height="22" fill="white" transform="translate(4 1)"/>
</clipPath>
</defs>
</svg>
