<svg width="25" height="24" viewBox="0 0 25 24" fill="none" xmlns="http://www.w3.org/2000/svg">
<path d="M24.6696 21.7529L16.8835 14.1445C18.0918 12.6182 18.7453 10.752 18.7453 8.78906C18.7453 6.43945 17.8069 4.23633 16.11 2.5752C14.4131 0.914062 12.1526 0 9.75109 0C7.34962 0 5.08907 0.916992 3.39215 2.5752C1.69224 4.2334 0.756836 6.43945 0.756836 8.78906C0.756836 11.1357 1.69524 13.3447 3.39215 15.0029C5.08907 16.6641 7.34663 17.5781 9.75109 17.5781C11.7598 17.5781 13.6666 16.9395 15.2286 15.7617L23.0146 23.3672C23.0375 23.3895 23.0646 23.4072 23.0944 23.4193C23.1242 23.4314 23.1562 23.4376 23.1885 23.4376C23.2208 23.4376 23.2528 23.4314 23.2826 23.4193C23.3125 23.4072 23.3396 23.3895 23.3624 23.3672L24.6696 22.0928C24.6924 22.0705 24.7105 22.044 24.7229 22.0148C24.7353 21.9857 24.7416 21.9544 24.7416 21.9228C24.7416 21.8913 24.7353 21.86 24.7229 21.8309C24.7105 21.8017 24.6924 21.7752 24.6696 21.7529ZM14.5001 13.4297C13.2289 14.6689 11.5439 15.3516 9.75109 15.3516C7.95824 15.3516 6.27331 14.6689 5.00212 13.4297C3.73393 12.1875 3.03538 10.541 3.03538 8.78906C3.03538 7.03711 3.73393 5.3877 5.00212 4.14844C6.27331 2.90918 7.95824 2.22656 9.75109 2.22656C11.5439 2.22656 13.2319 2.90625 14.5001 4.14844C15.7682 5.39062 16.4668 7.03711 16.4668 8.78906C16.4668 10.541 15.7682 12.1904 14.5001 13.4297Z" fill="#CDCDCD"/>
</svg>
