<svg width="24" height="24" viewBox="0 0 24 24" fill="none" xmlns="http://www.w3.org/2000/svg">
<g clip-path="url(#clip0_544_2450)">
<path d="M7.10511 22.8991C5.42331 22.8991 3.88775 22.2775 2.75436 21.1442C1.54785 19.9011 0.926319 18.2558 0.999441 16.4278C1.10912 14.6729 1.8769 12.9545 3.15653 11.6749L12.2602 2.57122C14.271 0.560374 17.3787 0.450691 19.2068 2.27874C21.0348 4.10678 20.9251 7.25102 18.9143 9.22531L9.48157 18.7311C8.89659 19.3161 8.16538 19.6452 7.36104 19.6817C6.52014 19.7183 5.75236 19.4258 5.20394 18.8774C4.07056 17.744 4.14368 15.8063 5.35019 14.5998L15.2948 4.65519C15.7335 4.21646 16.4281 4.21646 16.8303 4.65519C17.269 5.09392 17.269 5.78858 16.8303 6.19075L6.88575 16.1353C6.52014 16.5009 6.44701 17.0128 6.7395 17.3053C6.88575 17.4515 7.10511 17.4881 7.25135 17.4881C7.50728 17.4881 7.72664 17.3784 7.90945 17.159L17.3787 7.68975C18.5121 6.55636 18.6584 4.80144 17.6712 3.81429C16.6841 2.82715 14.9657 2.93683 13.7958 4.10678L4.72865 13.247C3.81463 14.161 3.26622 15.331 3.19309 16.574C3.11997 17.744 3.52214 18.8408 4.28992 19.6086C5.0577 20.3764 6.15453 20.7785 7.32448 20.7054C8.53098 20.6323 9.73749 20.0839 10.6515 19.1699L20.2305 9.59091C20.6692 9.15218 21.3639 9.15218 21.766 9.59091C22.2048 10.0296 22.2048 10.7243 21.766 11.1265L12.2236 20.742C10.9074 22.0582 9.22564 22.826 7.47072 22.8991C7.36104 22.8991 7.21479 22.8991 7.10511 22.8991Z" fill="#8D8D8D"/>
</g>
<defs>
<clipPath id="clip0_544_2450">
<rect width="21.1322" height="21.9" fill="white" transform="translate(1 1)"/>
</clipPath>
</defs>
</svg>
