<svg width="24" height="24" viewBox="0 0 24 24" fill="none" xmlns="http://www.w3.org/2000/svg">
<path fill-rule="evenodd" clip-rule="evenodd" d="M12 21.6C17.302 21.6 21.6 17.3019 21.6 12C21.6 6.69806 17.302 2.39999 12 2.39999C6.69809 2.39999 2.40002 6.69806 2.40002 12C2.40002 17.3019 6.69809 21.6 12 21.6ZM12.9 8.09999C12.9 7.60294 12.4971 7.19999 12 7.19999C11.503 7.19999 11.1 7.60294 11.1 8.09999V11.1H8.10002C7.60297 11.1 7.20002 11.5029 7.20002 12C7.20002 12.4971 7.60297 12.9 8.10002 12.9H11.1V15.9C11.1 16.397 11.503 16.8 12 16.8C12.4971 16.8 12.9 16.397 12.9 15.9V12.9H15.9C16.3971 12.9 16.8 12.4971 16.8 12C16.8 11.5029 16.3971 11.1 15.9 11.1H12.9V8.09999Z" fill="#FE6309"/>
</svg>
