<svg width="36" height="36" viewBox="0 0 36 36" fill="none" xmlns="http://www.w3.org/2000/svg">
<circle cx="18" cy="18" r="18" fill="#FF8600"/>
<path d="M20.8322 18.6573L10.805 20.3045C10.6897 20.3234 10.5815 20.372 10.4913 20.4453C10.4011 20.5185 10.332 20.6139 10.2911 20.7218L6.83375 29.854C6.5036 30.694 7.39422 31.4946 8.21163 31.0904L32.1747 19.2781C32.3403 19.1963 32.4796 19.0706 32.5769 18.9152C32.6742 18.7598 32.7258 18.5807 32.7258 18.3981C32.7258 18.2154 32.6742 18.0364 32.5769 17.881C32.4796 17.7256 32.3403 17.5999 32.1747 17.5181L8.21163 5.70583C7.39422 5.3029 6.5036 6.1035 6.83375 6.94217L10.2924 16.0744C10.3334 16.1823 10.4024 16.2777 10.4926 16.3509C10.5828 16.4242 10.691 16.4728 10.8063 16.4917L20.8335 18.1389C20.8961 18.1487 20.953 18.1802 20.9941 18.2277C21.0352 18.2752 21.0578 18.3356 21.0578 18.3981C21.0578 18.4605 21.0352 18.5209 20.9941 18.5684C20.953 18.616 20.8961 18.6475 20.8335 18.6573H20.8322Z" fill="white"/>
</svg>
