<svg width="290" height="96" viewBox="0 0 290 96" fill="none" xmlns="http://www.w3.org/2000/svg">
<rect width="290" height="96" rx="12" fill="#F6F6F6"/>
<path d="M17.638 30.5V17.9H23.11C23.95 17.9 24.658 18.026 25.234 18.278C25.822 18.518 26.266 18.872 26.566 19.34C26.866 19.808 27.016 20.366 27.016 21.014C27.016 21.734 26.836 22.334 26.476 22.814C26.116 23.294 25.6 23.624 24.928 23.804L24.91 23.444C25.462 23.576 25.948 23.792 26.368 24.092C26.788 24.392 27.112 24.764 27.34 25.208C27.568 25.652 27.682 26.156 27.682 26.72C27.682 27.344 27.58 27.896 27.376 28.376C27.172 28.844 26.872 29.234 26.476 29.546C26.08 29.858 25.612 30.098 25.072 30.266C24.544 30.422 23.95 30.5 23.29 30.5H17.638ZM20.23 28.16H23.182C23.566 28.16 23.89 28.106 24.154 27.998C24.43 27.878 24.64 27.698 24.784 27.458C24.928 27.218 25 26.936 25 26.612C25 26.3 24.922 26.036 24.766 25.82C24.61 25.604 24.388 25.442 24.1 25.334C23.824 25.214 23.488 25.154 23.092 25.154H20.23V28.16ZM20.23 23.012H22.786C23.11 23.012 23.392 22.952 23.632 22.832C23.872 22.712 24.052 22.55 24.172 22.346C24.304 22.142 24.37 21.902 24.37 21.626C24.37 21.182 24.226 20.84 23.938 20.6C23.65 20.36 23.218 20.24 22.642 20.24H20.23V23.012ZM30.136 30.5V17.9H35.482C36.226 17.9 36.898 18.08 37.498 18.44C38.11 18.788 38.59 19.268 38.938 19.88C39.298 20.492 39.478 21.182 39.478 21.95C39.478 22.73 39.298 23.432 38.938 24.056C38.59 24.68 38.11 25.178 37.498 25.55C36.898 25.91 36.226 26.09 35.482 26.09H32.836V30.5H30.136ZM32.8 23.66H35.176C35.464 23.66 35.722 23.588 35.95 23.444C36.178 23.288 36.358 23.084 36.49 22.832C36.634 22.58 36.706 22.292 36.706 21.968C36.706 21.644 36.634 21.362 36.49 21.122C36.358 20.87 36.178 20.678 35.95 20.546C35.722 20.402 35.464 20.33 35.176 20.33H32.8V23.66ZM41.8958 30.5V17.9H44.5958V28.07H50.3018V30.5H41.8958Z" fill="#3B3B45"/>
<path d="M105.355 23.6421L105.355 23.6421L105.358 23.645C105.405 23.6915 105.442 23.7468 105.468 23.8077C105.493 23.8686 105.506 23.934 105.506 24C105.506 24.066 105.493 24.1314 105.468 24.1923C105.442 24.2532 105.405 24.3085 105.358 24.355L105.357 24.3564L100.361 29.3519C100.314 29.396 100.259 29.4306 100.199 29.4538L100.189 29.458L100.178 29.4627C100.122 29.4874 100.061 29.5002 100 29.5002C99.9389 29.5002 99.8783 29.4874 99.8223 29.4627L99.8117 29.458L99.8009 29.4538C99.741 29.4306 99.6861 29.396 99.6392 29.3519L94.6437 24.3564C94.5492 24.2619 94.4961 24.1337 94.4961 24C94.4961 23.8663 94.5492 23.7381 94.6437 23.6436C94.7383 23.549 94.8665 23.4959 95.0002 23.4959C95.1338 23.4959 95.262 23.549 95.3565 23.6434C95.3565 23.6434 95.3566 23.6435 95.3566 23.6436L98.6461 26.943L99.5002 27.7997V26.59V19C99.5002 18.8674 99.5529 18.7402 99.6466 18.6464C99.7404 18.5527 99.8676 18.5 100 18.5C100.133 18.5 100.26 18.5527 100.354 18.6464C100.448 18.7402 100.5 18.8674 100.5 19V26.59V27.7997L101.354 26.943L104.644 23.643L104.645 23.6421C104.692 23.5952 104.747 23.558 104.808 23.5327C104.869 23.5073 104.934 23.4942 105 23.4942C105.066 23.4942 105.132 23.5073 105.192 23.5327C105.253 23.558 105.309 23.5952 105.355 23.6421Z" fill="#3B3B45" stroke="#FF5252"/>
<path d="M20.74 61.15C19.84 61.15 19.05 60.985 18.37 60.655C17.69 60.325 17.11 59.84 16.63 59.2L17.785 57.685C18.295 58.345 18.79 58.805 19.27 59.065C19.75 59.325 20.29 59.455 20.89 59.455C21.23 59.455 21.54 59.405 21.82 59.305C22.1 59.195 22.32 59.05 22.48 58.87C22.64 58.68 22.72 58.465 22.72 58.225C22.72 58.055 22.685 57.9 22.615 57.76C22.555 57.61 22.46 57.48 22.33 57.37C22.2 57.25 22.04 57.14 21.85 57.04C21.66 56.94 21.445 56.855 21.205 56.785C20.965 56.715 20.7 56.65 20.41 56.59C19.67 56.44 19.055 56.225 18.565 55.945C18.085 55.655 17.725 55.295 17.485 54.865C17.245 54.435 17.125 53.93 17.125 53.35C17.125 52.91 17.22 52.505 17.41 52.135C17.61 51.765 17.88 51.445 18.22 51.175C18.56 50.905 18.955 50.695 19.405 50.545C19.855 50.395 20.34 50.32 20.86 50.32C21.68 50.32 22.405 50.47 23.035 50.77C23.665 51.06 24.185 51.495 24.595 52.075L23.485 53.425C23.145 52.965 22.75 52.62 22.3 52.39C21.86 52.15 21.38 52.03 20.86 52.03C20.5 52.03 20.185 52.08 19.915 52.18C19.655 52.28 19.45 52.425 19.3 52.615C19.15 52.795 19.075 53.015 19.075 53.275C19.075 53.475 19.12 53.655 19.21 53.815C19.3 53.965 19.425 54.1 19.585 54.22C19.755 54.34 19.97 54.445 20.23 54.535C20.49 54.625 20.785 54.705 21.115 54.775C21.665 54.885 22.16 55.035 22.6 55.225C23.04 55.405 23.415 55.625 23.725 55.885C24.035 56.135 24.27 56.425 24.43 56.755C24.59 57.075 24.67 57.435 24.67 57.835C24.67 58.525 24.505 59.12 24.175 59.62C23.855 60.11 23.4 60.49 22.81 60.76C22.22 61.02 21.53 61.15 20.74 61.15ZM19.84 62.365L19.9 55.495L21.265 55.99L21.325 62.365H19.84ZM21.79 55.99L20.425 55.495L20.365 49.24H21.85L21.79 55.99ZM28.6439 60.265V51.745L29.1989 52.465L27.0689 53.545L26.6339 51.835L29.4989 50.35H30.5789V60.265H28.6439ZM26.8889 61V59.2H32.3789V61H26.8889ZM38.5209 61V52.525L39.2409 52.6L35.6709 56.965L35.5059 56.695H42.1809V58.39H34.4559L33.6459 56.83L38.8659 50.47H40.3959V61H38.5209ZM43.6994 61L43.2044 59.77L46.3544 56.245C46.5344 56.065 46.7194 55.86 46.9094 55.63C47.0994 55.39 47.2794 55.145 47.4494 54.895C47.6294 54.635 47.7744 54.385 47.8844 54.145C47.9944 53.895 48.0494 53.665 48.0494 53.455C48.0494 53.185 47.9894 52.95 47.8694 52.75C47.7594 52.55 47.5994 52.395 47.3894 52.285C47.1794 52.175 46.9194 52.12 46.6094 52.12C46.3394 52.12 46.0744 52.2 45.8144 52.36C45.5644 52.51 45.3294 52.73 45.1094 53.02C44.8994 53.3 44.7244 53.635 44.5844 54.025L43.1144 53.155C43.2944 52.575 43.5644 52.075 43.9244 51.655C44.2944 51.225 44.7244 50.895 45.2144 50.665C45.7144 50.435 46.2544 50.32 46.8344 50.32C47.4344 50.32 47.9694 50.445 48.4394 50.695C48.9094 50.945 49.2794 51.29 49.5494 51.73C49.8294 52.17 49.9694 52.685 49.9694 53.275C49.9694 53.495 49.9444 53.725 49.8944 53.965C49.8444 54.195 49.7644 54.44 49.6544 54.7C49.5544 54.95 49.4194 55.215 49.2494 55.495C49.0794 55.765 48.8744 56.05 48.6344 56.35C48.4044 56.65 48.1394 56.965 47.8394 57.295L45.4544 59.89L45.1544 59.2H50.3444V61H43.6994ZM52.4871 61.165C52.1271 61.165 51.8471 61.06 51.6471 60.85C51.4571 60.64 51.3621 60.345 51.3621 59.965C51.3621 59.615 51.4621 59.33 51.6621 59.11C51.8721 58.88 52.1471 58.765 52.4871 58.765C52.8471 58.765 53.1221 58.87 53.3121 59.08C53.5121 59.28 53.6121 59.575 53.6121 59.965C53.6121 60.315 53.5071 60.605 53.2971 60.835C53.0971 61.055 52.8271 61.165 52.4871 61.165ZM57.5914 61L57.5314 60.85L60.7114 54.22L60.8914 55.345C60.7414 55.665 60.5564 55.95 60.3364 56.2C60.1264 56.45 59.8814 56.67 59.6014 56.86C59.3314 57.04 59.0514 57.18 58.7614 57.28C58.4714 57.37 58.1814 57.415 57.8914 57.415C57.3214 57.415 56.7964 57.265 56.3164 56.965C55.8364 56.655 55.4514 56.25 55.1614 55.75C54.8714 55.24 54.7264 54.685 54.7264 54.085C54.7264 53.375 54.8914 52.735 55.2214 52.165C55.5514 51.585 55.9964 51.13 56.5564 50.8C57.1264 50.46 57.7664 50.29 58.4764 50.29C58.9864 50.29 59.4664 50.385 59.9164 50.575C60.3764 50.755 60.7714 51.01 61.1014 51.34C61.4414 51.67 61.7064 52.05 61.8964 52.48C62.0964 52.91 62.1964 53.365 62.1964 53.845C62.1964 54.135 62.1664 54.435 62.1064 54.745C62.0564 55.045 61.9714 55.375 61.8514 55.735C61.7314 56.095 61.5764 56.49 61.3864 56.92C61.2064 57.35 60.9864 57.84 60.7264 58.39L59.4514 61H57.5914ZM58.3264 55.735C58.6864 55.735 59.0114 55.655 59.3014 55.495C59.5914 55.325 59.8164 55.105 59.9764 54.835C60.1364 54.565 60.2164 54.255 60.2164 53.905C60.2164 53.545 60.1364 53.22 59.9764 52.93C59.8164 52.64 59.5964 52.415 59.3164 52.255C59.0364 52.085 58.7164 52 58.3564 52C58.0164 52 57.7164 52.08 57.4564 52.24C57.1964 52.4 56.9864 52.625 56.8264 52.915C56.6764 53.195 56.6014 53.525 56.6014 53.905C56.6014 54.225 56.6764 54.525 56.8264 54.805C56.9864 55.085 57.1964 55.31 57.4564 55.48C57.7264 55.65 58.0164 55.735 58.3264 55.735ZM67.3949 61.15C66.5449 61.15 65.8149 60.935 65.2049 60.505C64.6049 60.065 64.1399 59.445 63.8099 58.645C63.4899 57.835 63.3299 56.87 63.3299 55.75C63.3299 54.63 63.4899 53.67 63.8099 52.87C64.1399 52.06 64.6049 51.44 65.2049 51.01C65.8149 50.57 66.5449 50.35 67.3949 50.35C68.2449 50.35 68.9749 50.57 69.5849 51.01C70.1949 51.44 70.6599 52.06 70.9799 52.87C71.3099 53.67 71.4749 54.63 71.4749 55.75C71.4749 56.87 71.3099 57.835 70.9799 58.645C70.6599 59.445 70.1949 60.065 69.5849 60.505C68.9749 60.935 68.2449 61.15 67.3949 61.15ZM67.3949 59.44C68.0949 59.44 68.6349 59.12 69.0149 58.48C69.4049 57.83 69.5999 56.92 69.5999 55.75C69.5999 54.57 69.4049 53.655 69.0149 53.005C68.6349 52.355 68.0949 52.03 67.3949 52.03C66.6949 52.03 66.1499 52.355 65.7599 53.005C65.3799 53.655 65.1899 54.57 65.1899 55.75C65.1899 56.92 65.3799 57.83 65.7599 58.48C66.1499 59.12 66.6949 59.44 67.3949 59.44Z" fill="#A3A3A6"/>
<path d="M16.624 77.276V75.86H20.332V77.276H16.624ZM24.737 80.12C24.057 80.12 23.473 79.948 22.985 79.604C22.505 79.252 22.133 78.756 21.869 78.116C21.613 77.468 21.485 76.696 21.485 75.8C21.485 74.904 21.613 74.136 21.869 73.496C22.133 72.848 22.505 72.352 22.985 72.008C23.473 71.656 24.057 71.48 24.737 71.48C25.417 71.48 26.001 71.656 26.489 72.008C26.977 72.352 27.349 72.848 27.605 73.496C27.869 74.136 28.001 74.904 28.001 75.8C28.001 76.696 27.869 77.468 27.605 78.116C27.349 78.756 26.977 79.252 26.489 79.604C26.001 79.948 25.417 80.12 24.737 80.12ZM24.737 78.752C25.297 78.752 25.729 78.496 26.033 77.984C26.345 77.464 26.501 76.736 26.501 75.8C26.501 74.856 26.345 74.124 26.033 73.604C25.729 73.084 25.297 72.824 24.737 72.824C24.177 72.824 23.741 73.084 23.429 73.604C23.125 74.124 22.973 74.856 22.973 75.8C22.973 76.736 23.125 77.464 23.429 77.984C23.741 78.496 24.177 78.752 24.737 78.752ZM29.9553 80.132C29.6673 80.132 29.4433 80.048 29.2833 79.88C29.1313 79.712 29.0553 79.476 29.0553 79.172C29.0553 78.892 29.1353 78.664 29.2953 78.488C29.4633 78.304 29.6833 78.212 29.9553 78.212C30.2433 78.212 30.4633 78.296 30.6153 78.464C30.7753 78.624 30.8553 78.86 30.8553 79.172C30.8553 79.452 30.7713 79.684 30.6033 79.868C30.4433 80.044 30.2273 80.132 29.9553 80.132ZM32.6107 80L36.0547 72.392L36.3427 72.98H32.0467V71.576H37.3387L37.5187 72.452L34.2307 80H32.6107ZM41.2071 80.036C40.6711 80.036 40.1791 79.928 39.7311 79.712C39.2911 79.488 38.9391 79.192 38.6751 78.824C38.4111 78.448 38.2791 78.032 38.2791 77.576C38.2791 77.304 38.3151 77.052 38.3871 76.82C38.4671 76.588 38.5791 76.38 38.7231 76.196C38.8751 76.012 39.0551 75.848 39.2631 75.704C39.4791 75.552 39.7231 75.42 39.9951 75.308L39.8991 75.644C39.6911 75.556 39.4991 75.452 39.3231 75.332C39.1551 75.212 39.0071 75.076 38.8791 74.924C38.7591 74.764 38.6671 74.596 38.6031 74.42C38.5391 74.236 38.5071 74.044 38.5071 73.844C38.5071 73.412 38.6271 73.024 38.8671 72.68C39.1151 72.336 39.4431 72.064 39.8511 71.864C40.2591 71.656 40.7111 71.552 41.2071 71.552C41.7111 71.552 42.1671 71.656 42.5751 71.864C42.9831 72.064 43.3071 72.336 43.5471 72.68C43.7951 73.024 43.9191 73.412 43.9191 73.844C43.9191 74.044 43.8871 74.236 43.8231 74.42C43.7591 74.596 43.6671 74.76 43.5471 74.912C43.4351 75.056 43.2911 75.192 43.1151 75.32C42.9391 75.44 42.7351 75.548 42.5031 75.644L42.4431 75.356C42.6991 75.444 42.9311 75.56 43.1391 75.704C43.3471 75.848 43.5271 76.016 43.6791 76.208C43.8311 76.4 43.9471 76.612 44.0271 76.844C44.1151 77.076 44.1591 77.32 44.1591 77.576C44.1591 78.04 44.0271 78.46 43.7631 78.836C43.4991 79.204 43.1431 79.496 42.6951 79.712C42.2551 79.928 41.7591 80.036 41.2071 80.036ZM41.2071 78.692C41.4791 78.692 41.7231 78.64 41.9391 78.536C42.1551 78.432 42.3231 78.292 42.4431 78.116C42.5711 77.94 42.6351 77.736 42.6351 77.504C42.6351 77.256 42.5711 77.04 42.4431 76.856C42.3231 76.664 42.1551 76.516 41.9391 76.412C41.7231 76.3 41.4791 76.244 41.2071 76.244C40.9431 76.244 40.7031 76.3 40.4871 76.412C40.2791 76.516 40.1111 76.664 39.9831 76.856C39.8551 77.04 39.7911 77.256 39.7911 77.504C39.7911 77.728 39.8551 77.928 39.9831 78.104C40.1111 78.28 40.2791 78.424 40.4871 78.536C40.7031 78.64 40.9431 78.692 41.2071 78.692ZM41.2071 74.924C41.4471 74.924 41.6591 74.88 41.8431 74.792C42.0351 74.704 42.1831 74.584 42.2871 74.432C42.3911 74.28 42.4431 74.104 42.4431 73.904C42.4431 73.696 42.3911 73.516 42.2871 73.364C42.1831 73.204 42.0351 73.08 41.8431 72.992C41.6591 72.896 41.4471 72.848 41.2071 72.848C40.9751 72.848 40.7631 72.896 40.5711 72.992C40.3871 73.08 40.2431 73.204 40.1391 73.364C40.0351 73.516 39.9831 73.696 39.9831 73.904C39.9831 74.104 40.0351 74.28 40.1391 74.432C40.2431 74.584 40.3871 74.704 40.5711 74.792C40.7631 74.88 40.9751 74.924 41.2071 74.924ZM46.4624 80L52.0184 71.6H53.4464L47.8304 80H46.4624ZM47.1464 76.052C46.7704 76.052 46.4344 75.952 46.1384 75.752C45.8504 75.552 45.6224 75.28 45.4544 74.936C45.2944 74.592 45.2144 74.2 45.2144 73.76C45.2144 73.312 45.2944 72.916 45.4544 72.572C45.6224 72.22 45.8504 71.944 46.1384 71.744C46.4344 71.544 46.7744 71.444 47.1584 71.444C47.5344 71.444 47.8664 71.544 48.1544 71.744C48.4504 71.944 48.6784 72.22 48.8384 72.572C49.0064 72.916 49.0904 73.312 49.0904 73.76C49.0904 74.192 49.0064 74.584 48.8384 74.936C48.6704 75.28 48.4384 75.552 48.1424 75.752C47.8464 75.952 47.5144 76.052 47.1464 76.052ZM47.1584 75.032C47.3104 75.032 47.4424 74.98 47.5544 74.876C47.6664 74.772 47.7544 74.628 47.8184 74.444C47.8824 74.252 47.9144 74.024 47.9144 73.76C47.9144 73.496 47.8824 73.268 47.8184 73.076C47.7544 72.884 47.6664 72.736 47.5544 72.632C47.4424 72.528 47.3064 72.476 47.1464 72.476C46.9944 72.476 46.8584 72.532 46.7384 72.644C46.6264 72.748 46.5384 72.896 46.4744 73.088C46.4104 73.272 46.3784 73.496 46.3784 73.76C46.3784 74.024 46.4064 74.252 46.4624 74.444C46.5264 74.628 46.6184 74.772 46.7384 74.876C46.8584 74.98 46.9984 75.032 47.1584 75.032ZM52.8464 80.108C52.4704 80.108 52.1344 80.008 51.8384 79.808C51.5504 79.608 51.3224 79.336 51.1544 78.992C50.9864 78.648 50.9024 78.256 50.9024 77.816C50.9024 77.368 50.9824 76.972 51.1424 76.628C51.3104 76.276 51.5424 76 51.8384 75.8C52.1344 75.6 52.4704 75.5 52.8464 75.5C53.2304 75.5 53.5664 75.6 53.8544 75.8C54.1424 76 54.3664 76.276 54.5264 76.628C54.6944 76.972 54.7784 77.368 54.7784 77.816C54.7784 78.248 54.6944 78.64 54.5264 78.992C54.3584 79.336 54.1264 79.608 53.8304 79.808C53.5424 80.008 53.2144 80.108 52.8464 80.108ZM52.8464 79.1C52.9984 79.1 53.1304 79.048 53.2424 78.944C53.3624 78.832 53.4544 78.684 53.5184 78.5C53.5824 78.308 53.6144 78.08 53.6144 77.816C53.6144 77.56 53.5824 77.336 53.5184 77.144C53.4544 76.952 53.3624 76.804 53.2424 76.7C53.1304 76.588 52.9984 76.532 52.8464 76.532C52.6864 76.532 52.5464 76.584 52.4264 76.688C52.3144 76.792 52.2264 76.944 52.1624 77.144C52.0984 77.336 52.0664 77.56 52.0664 77.816C52.0664 78.08 52.0984 78.308 52.1624 78.5C52.2264 78.684 52.3144 78.832 52.4264 78.944C52.5464 79.048 52.6864 79.1 52.8464 79.1Z" fill="#FF5252"/>
<line x1="120" y1="51" x2="274" y2="51" stroke="#D1D1D3" stroke-dasharray="5 5"/>
<path d="M120 63L121.409 65.85C122.682 68.4246 126.332 68.4841 127.688 65.9522V65.9522C128.574 64.297 130.601 63.6248 132.301 64.4222L133.205 64.8462C135.662 65.9989 138.577 64.776 139.477 62.215L139.83 61.2093C140.611 58.9872 142.709 57.5 145.064 57.5H146.614C149.975 57.5 152.952 55.3286 153.978 52.1275L156.858 43.1471C157.687 40.5615 159.771 38.573 162.392 37.8659L180.125 33.0831C181.539 32.7017 182.821 31.9394 183.832 30.8794L191.511 22.8239C193.956 20.2594 197.797 19.6086 200.95 21.2246L211.702 26.7345C213.301 27.5542 214.578 28.8887 215.327 30.5229L221.614 44.2513C221.842 44.7491 222.018 45.269 222.14 45.8029L226.236 63.7563C227.123 67.6436 232.561 67.9064 233.819 64.1228V64.1228C234.062 63.3904 234.515 62.7456 235.122 62.2684L237.409 60.4693C238.222 59.8292 238.904 59.0372 239.416 58.1373L254 32.5" stroke="#FFB800" stroke-width="2"/>
<circle cx="253.5" cy="32.5" r="8.5" fill="#FFB800" fill-opacity="0.15"/>
<circle cx="254" cy="33" r="4" fill="#FFB800"/>
</svg>
