<svg width="290" height="96" viewBox="0 0 290 96" fill="none" xmlns="http://www.w3.org/2000/svg">
<rect width="290" height="96" rx="12" fill="#F6F6F6"/>
<path d="M16.144 30.5L21.076 17.9H23.488L28.402 30.5H25.63L23.092 23.714C23.02 23.522 22.93 23.276 22.822 22.976C22.726 22.676 22.624 22.358 22.516 22.022C22.408 21.686 22.306 21.368 22.21 21.068C22.114 20.756 22.042 20.498 21.994 20.294L22.48 20.276C22.408 20.552 22.324 20.84 22.228 21.14C22.144 21.428 22.054 21.728 21.958 22.04C21.862 22.34 21.76 22.634 21.652 22.922C21.544 23.21 21.442 23.492 21.346 23.768L18.808 30.5H16.144ZM18.43 27.854L19.312 25.676H25.09L25.99 27.854H18.43ZM28.6772 30.5L33.6092 17.9H36.0212L40.9352 30.5H38.1632L35.6252 23.714C35.5532 23.522 35.4632 23.276 35.3552 22.976C35.2592 22.676 35.1572 22.358 35.0492 22.022C34.9412 21.686 34.8392 21.368 34.7432 21.068C34.6472 20.756 34.5752 20.498 34.5272 20.294L35.0132 20.276C34.9412 20.552 34.8572 20.84 34.7612 21.14C34.6772 21.428 34.5872 21.728 34.4912 22.04C34.3952 22.34 34.2932 22.634 34.1852 22.922C34.0772 23.21 33.9752 23.492 33.8792 23.768L31.3412 30.5H28.6772ZM30.9632 27.854L31.8452 25.676H37.6232L38.5232 27.854H30.9632ZM42.7044 30.5V17.9H48.0504C48.7944 17.9 49.4664 18.08 50.0664 18.44C50.6784 18.788 51.1584 19.268 51.5064 19.88C51.8664 20.492 52.0464 21.182 52.0464 21.95C52.0464 22.73 51.8664 23.432 51.5064 24.056C51.1584 24.68 50.6784 25.178 50.0664 25.55C49.4664 25.91 48.7944 26.09 48.0504 26.09H45.4044V30.5H42.7044ZM45.3684 23.66H47.7444C48.0324 23.66 48.2904 23.588 48.5184 23.444C48.7464 23.288 48.9264 23.084 49.0584 22.832C49.2024 22.58 49.2744 22.292 49.2744 21.968C49.2744 21.644 49.2024 21.362 49.0584 21.122C48.9264 20.87 48.7464 20.678 48.5184 20.546C48.2904 20.402 48.0324 20.33 47.7444 20.33H45.3684V23.66ZM54.4642 30.5V17.9H57.1642V28.07H62.8702V30.5H54.4642Z" fill="#3B3B45"/>
<path d="M94.6448 24.3579L94.6448 24.3579L94.6419 24.355C94.595 24.3085 94.5579 24.2532 94.5325 24.1923C94.5071 24.1314 94.494 24.066 94.494 24C94.494 23.934 94.5071 23.8686 94.5325 23.8077C94.5579 23.7468 94.595 23.6915 94.6419 23.645L94.6434 23.6436L99.6388 18.6481C99.6857 18.604 99.7406 18.5694 99.8006 18.5462L99.8114 18.542L99.8219 18.5373C99.878 18.5126 99.9386 18.4998 99.9998 18.4998C100.061 18.4998 100.122 18.5126 100.178 18.5373L100.188 18.542L100.199 18.5462C100.259 18.5694 100.314 18.604 100.361 18.6481L105.356 23.6436C105.451 23.7381 105.504 23.8663 105.504 24C105.504 24.1337 105.451 24.2619 105.356 24.3564C105.262 24.451 105.134 24.5041 105 24.5041C104.866 24.5041 104.738 24.451 104.644 24.3566C104.643 24.3566 104.643 24.3565 104.643 24.3564L101.354 21.057L100.5 20.2003V21.41V29C100.5 29.1326 100.447 29.2598 100.353 29.3536C100.26 29.4473 100.132 29.5 99.9998 29.5C99.8672 29.5 99.74 29.4473 99.6463 29.3536C99.5525 29.2598 99.4998 29.1326 99.4998 29V21.41V20.2003L98.6457 21.057L95.3557 24.357L95.3548 24.3579C95.3083 24.4048 95.253 24.442 95.1921 24.4673C95.1312 24.4927 95.0658 24.5058 94.9998 24.5058C94.9338 24.5058 94.8685 24.4927 94.8075 24.4673C94.7466 24.442 94.6913 24.4048 94.6448 24.3579Z" stroke="#00A441"/>
<path d="M20.74 61.15C19.84 61.15 19.05 60.985 18.37 60.655C17.69 60.325 17.11 59.84 16.63 59.2L17.785 57.685C18.295 58.345 18.79 58.805 19.27 59.065C19.75 59.325 20.29 59.455 20.89 59.455C21.23 59.455 21.54 59.405 21.82 59.305C22.1 59.195 22.32 59.05 22.48 58.87C22.64 58.68 22.72 58.465 22.72 58.225C22.72 58.055 22.685 57.9 22.615 57.76C22.555 57.61 22.46 57.48 22.33 57.37C22.2 57.25 22.04 57.14 21.85 57.04C21.66 56.94 21.445 56.855 21.205 56.785C20.965 56.715 20.7 56.65 20.41 56.59C19.67 56.44 19.055 56.225 18.565 55.945C18.085 55.655 17.725 55.295 17.485 54.865C17.245 54.435 17.125 53.93 17.125 53.35C17.125 52.91 17.22 52.505 17.41 52.135C17.61 51.765 17.88 51.445 18.22 51.175C18.56 50.905 18.955 50.695 19.405 50.545C19.855 50.395 20.34 50.32 20.86 50.32C21.68 50.32 22.405 50.47 23.035 50.77C23.665 51.06 24.185 51.495 24.595 52.075L23.485 53.425C23.145 52.965 22.75 52.62 22.3 52.39C21.86 52.15 21.38 52.03 20.86 52.03C20.5 52.03 20.185 52.08 19.915 52.18C19.655 52.28 19.45 52.425 19.3 52.615C19.15 52.795 19.075 53.015 19.075 53.275C19.075 53.475 19.12 53.655 19.21 53.815C19.3 53.965 19.425 54.1 19.585 54.22C19.755 54.34 19.97 54.445 20.23 54.535C20.49 54.625 20.785 54.705 21.115 54.775C21.665 54.885 22.16 55.035 22.6 55.225C23.04 55.405 23.415 55.625 23.725 55.885C24.035 56.135 24.27 56.425 24.43 56.755C24.59 57.075 24.67 57.435 24.67 57.835C24.67 58.525 24.505 59.12 24.175 59.62C23.855 60.11 23.4 60.49 22.81 60.76C22.22 61.02 21.53 61.15 20.74 61.15ZM19.84 62.365L19.9 55.495L21.265 55.99L21.325 62.365H19.84ZM21.79 55.99L20.425 55.495L20.365 49.24H21.85L21.79 55.99ZM28.6439 60.265V51.745L29.1989 52.465L27.0689 53.545L26.6339 51.835L29.4989 50.35H30.5789V60.265H28.6439ZM26.8889 61V59.2H32.3789V61H26.8889ZM38.5209 61V52.525L39.2409 52.6L35.6709 56.965L35.5059 56.695H42.1809V58.39H34.4559L33.6459 56.83L38.8659 50.47H40.3959V61H38.5209ZM43.6994 61L43.2044 59.77L46.3544 56.245C46.5344 56.065 46.7194 55.86 46.9094 55.63C47.0994 55.39 47.2794 55.145 47.4494 54.895C47.6294 54.635 47.7744 54.385 47.8844 54.145C47.9944 53.895 48.0494 53.665 48.0494 53.455C48.0494 53.185 47.9894 52.95 47.8694 52.75C47.7594 52.55 47.5994 52.395 47.3894 52.285C47.1794 52.175 46.9194 52.12 46.6094 52.12C46.3394 52.12 46.0744 52.2 45.8144 52.36C45.5644 52.51 45.3294 52.73 45.1094 53.02C44.8994 53.3 44.7244 53.635 44.5844 54.025L43.1144 53.155C43.2944 52.575 43.5644 52.075 43.9244 51.655C44.2944 51.225 44.7244 50.895 45.2144 50.665C45.7144 50.435 46.2544 50.32 46.8344 50.32C47.4344 50.32 47.9694 50.445 48.4394 50.695C48.9094 50.945 49.2794 51.29 49.5494 51.73C49.8294 52.17 49.9694 52.685 49.9694 53.275C49.9694 53.495 49.9444 53.725 49.8944 53.965C49.8444 54.195 49.7644 54.44 49.6544 54.7C49.5544 54.95 49.4194 55.215 49.2494 55.495C49.0794 55.765 48.8744 56.05 48.6344 56.35C48.4044 56.65 48.1394 56.965 47.8394 57.295L45.4544 59.89L45.1544 59.2H50.3444V61H43.6994ZM52.4871 61.165C52.1271 61.165 51.8471 61.06 51.6471 60.85C51.4571 60.64 51.3621 60.345 51.3621 59.965C51.3621 59.615 51.4621 59.33 51.6621 59.11C51.8721 58.88 52.1471 58.765 52.4871 58.765C52.8471 58.765 53.1221 58.87 53.3121 59.08C53.5121 59.28 53.6121 59.575 53.6121 59.965C53.6121 60.315 53.5071 60.605 53.2971 60.835C53.0971 61.055 52.8271 61.165 52.4871 61.165ZM57.5914 61L57.5314 60.85L60.7114 54.22L60.8914 55.345C60.7414 55.665 60.5564 55.95 60.3364 56.2C60.1264 56.45 59.8814 56.67 59.6014 56.86C59.3314 57.04 59.0514 57.18 58.7614 57.28C58.4714 57.37 58.1814 57.415 57.8914 57.415C57.3214 57.415 56.7964 57.265 56.3164 56.965C55.8364 56.655 55.4514 56.25 55.1614 55.75C54.8714 55.24 54.7264 54.685 54.7264 54.085C54.7264 53.375 54.8914 52.735 55.2214 52.165C55.5514 51.585 55.9964 51.13 56.5564 50.8C57.1264 50.46 57.7664 50.29 58.4764 50.29C58.9864 50.29 59.4664 50.385 59.9164 50.575C60.3764 50.755 60.7714 51.01 61.1014 51.34C61.4414 51.67 61.7064 52.05 61.8964 52.48C62.0964 52.91 62.1964 53.365 62.1964 53.845C62.1964 54.135 62.1664 54.435 62.1064 54.745C62.0564 55.045 61.9714 55.375 61.8514 55.735C61.7314 56.095 61.5764 56.49 61.3864 56.92C61.2064 57.35 60.9864 57.84 60.7264 58.39L59.4514 61H57.5914ZM58.3264 55.735C58.6864 55.735 59.0114 55.655 59.3014 55.495C59.5914 55.325 59.8164 55.105 59.9764 54.835C60.1364 54.565 60.2164 54.255 60.2164 53.905C60.2164 53.545 60.1364 53.22 59.9764 52.93C59.8164 52.64 59.5964 52.415 59.3164 52.255C59.0364 52.085 58.7164 52 58.3564 52C58.0164 52 57.7164 52.08 57.4564 52.24C57.1964 52.4 56.9864 52.625 56.8264 52.915C56.6764 53.195 56.6014 53.525 56.6014 53.905C56.6014 54.225 56.6764 54.525 56.8264 54.805C56.9864 55.085 57.1964 55.31 57.4564 55.48C57.7264 55.65 58.0164 55.735 58.3264 55.735ZM67.3949 61.15C66.5449 61.15 65.8149 60.935 65.2049 60.505C64.6049 60.065 64.1399 59.445 63.8099 58.645C63.4899 57.835 63.3299 56.87 63.3299 55.75C63.3299 54.63 63.4899 53.67 63.8099 52.87C64.1399 52.06 64.6049 51.44 65.2049 51.01C65.8149 50.57 66.5449 50.35 67.3949 50.35C68.2449 50.35 68.9749 50.57 69.5849 51.01C70.1949 51.44 70.6599 52.06 70.9799 52.87C71.3099 53.67 71.4749 54.63 71.4749 55.75C71.4749 56.87 71.3099 57.835 70.9799 58.645C70.6599 59.445 70.1949 60.065 69.5849 60.505C68.9749 60.935 68.2449 61.15 67.3949 61.15ZM67.3949 59.44C68.0949 59.44 68.6349 59.12 69.0149 58.48C69.4049 57.83 69.5999 56.92 69.5999 55.75C69.5999 54.57 69.4049 53.655 69.0149 53.005C68.6349 52.355 68.0949 52.03 67.3949 52.03C66.6949 52.03 66.1499 52.355 65.7599 53.005C65.3799 53.655 65.1899 54.57 65.1899 55.75C65.1899 56.92 65.3799 57.83 65.7599 58.48C66.1499 59.12 66.6949 59.44 67.3949 59.44Z" fill="#A3A3A6"/>
<path d="M16.552 77.252V76.004H22.564V77.252H16.552ZM18.844 79.508V73.688H20.26V79.508H18.844ZM26.8933 80.12C26.2133 80.12 25.6293 79.948 25.1413 79.604C24.6613 79.252 24.2893 78.756 24.0253 78.116C23.7693 77.468 23.6413 76.696 23.6413 75.8C23.6413 74.904 23.7693 74.136 24.0253 73.496C24.2893 72.848 24.6613 72.352 25.1413 72.008C25.6293 71.656 26.2133 71.48 26.8933 71.48C27.5733 71.48 28.1573 71.656 28.6453 72.008C29.1333 72.352 29.5053 72.848 29.7613 73.496C30.0253 74.136 30.1573 74.904 30.1573 75.8C30.1573 76.696 30.0253 77.468 29.7613 78.116C29.5053 78.756 29.1333 79.252 28.6453 79.604C28.1573 79.948 27.5733 80.12 26.8933 80.12ZM26.8933 78.752C27.4533 78.752 27.8853 78.496 28.1893 77.984C28.5013 77.464 28.6573 76.736 28.6573 75.8C28.6573 74.856 28.5013 74.124 28.1893 73.604C27.8853 73.084 27.4533 72.824 26.8933 72.824C26.3333 72.824 25.8973 73.084 25.5853 73.604C25.2813 74.124 25.1293 74.856 25.1293 75.8C25.1293 76.736 25.2813 77.464 25.5853 77.984C25.8973 78.496 26.3333 78.752 26.8933 78.752ZM32.1116 80.132C31.8236 80.132 31.5996 80.048 31.4396 79.88C31.2876 79.712 31.2116 79.476 31.2116 79.172C31.2116 78.892 31.2916 78.664 31.4516 78.488C31.6196 78.304 31.8396 78.212 32.1116 78.212C32.3996 78.212 32.6196 78.296 32.7716 78.464C32.9316 78.624 33.0116 78.86 33.0116 79.172C33.0116 79.452 32.9276 79.684 32.7596 79.868C32.5996 80.044 32.3836 80.132 32.1116 80.132ZM37.4503 80V73.22L38.0263 73.28L35.1703 76.772L35.0383 76.556H40.3783V77.912H34.1983L33.5503 76.664L37.7263 71.576H38.9503V80H37.4503ZM41.8451 80L45.2891 72.392L45.5771 72.98H41.2811V71.576H46.5731L46.7531 72.452L43.4651 80H41.8451ZM48.8999 80L54.4559 71.6H55.8839L50.2679 80H48.8999ZM49.5839 76.052C49.2079 76.052 48.8719 75.952 48.5759 75.752C48.2879 75.552 48.0599 75.28 47.8919 74.936C47.7319 74.592 47.6519 74.2 47.6519 73.76C47.6519 73.312 47.7319 72.916 47.8919 72.572C48.0599 72.22 48.2879 71.944 48.5759 71.744C48.8719 71.544 49.2119 71.444 49.5959 71.444C49.9719 71.444 50.3039 71.544 50.5919 71.744C50.8879 71.944 51.1159 72.22 51.2759 72.572C51.4439 72.916 51.5279 73.312 51.5279 73.76C51.5279 74.192 51.4439 74.584 51.2759 74.936C51.1079 75.28 50.8759 75.552 50.5799 75.752C50.2839 75.952 49.9519 76.052 49.5839 76.052ZM49.5959 75.032C49.7479 75.032 49.8799 74.98 49.9919 74.876C50.1039 74.772 50.1919 74.628 50.2559 74.444C50.3199 74.252 50.3519 74.024 50.3519 73.76C50.3519 73.496 50.3199 73.268 50.2559 73.076C50.1919 72.884 50.1039 72.736 49.9919 72.632C49.8799 72.528 49.7439 72.476 49.5839 72.476C49.4319 72.476 49.2959 72.532 49.1759 72.644C49.0639 72.748 48.9759 72.896 48.9119 73.088C48.8479 73.272 48.8159 73.496 48.8159 73.76C48.8159 74.024 48.8439 74.252 48.8999 74.444C48.9639 74.628 49.0559 74.772 49.1759 74.876C49.2959 74.98 49.4359 75.032 49.5959 75.032ZM55.2839 80.108C54.9079 80.108 54.5719 80.008 54.2759 79.808C53.9879 79.608 53.7599 79.336 53.5919 78.992C53.4239 78.648 53.3399 78.256 53.3399 77.816C53.3399 77.368 53.4199 76.972 53.5799 76.628C53.7479 76.276 53.9799 76 54.2759 75.8C54.5719 75.6 54.9079 75.5 55.2839 75.5C55.6679 75.5 56.0039 75.6 56.2919 75.8C56.5799 76 56.8039 76.276 56.9639 76.628C57.1319 76.972 57.2159 77.368 57.2159 77.816C57.2159 78.248 57.1319 78.64 56.9639 78.992C56.7959 79.336 56.5639 79.608 56.2679 79.808C55.9799 80.008 55.6519 80.108 55.2839 80.108ZM55.2839 79.1C55.4359 79.1 55.5679 79.048 55.6799 78.944C55.7999 78.832 55.8919 78.684 55.9559 78.5C56.0199 78.308 56.0519 78.08 56.0519 77.816C56.0519 77.56 56.0199 77.336 55.9559 77.144C55.8919 76.952 55.7999 76.804 55.6799 76.7C55.5679 76.588 55.4359 76.532 55.2839 76.532C55.1239 76.532 54.9839 76.584 54.8639 76.688C54.7519 76.792 54.6639 76.944 54.5999 77.144C54.5359 77.336 54.5039 77.56 54.5039 77.816C54.5039 78.08 54.5359 78.308 54.5999 78.5C54.6639 78.684 54.7519 78.832 54.8639 78.944C54.9839 79.048 55.1239 79.1 55.2839 79.1Z" fill="#00A441"/>
<line x1="120" y1="51" x2="274" y2="51" stroke="#D1D1D3" stroke-dasharray="5 5"/>
<path d="M120 63L121.409 65.85C122.682 68.4246 126.332 68.4841 127.688 65.9522V65.9522C128.574 64.297 130.601 63.6248 132.301 64.4222L133.205 64.8462C135.662 65.9989 138.577 64.776 139.477 62.215L139.83 61.2093C140.611 58.9872 142.709 57.5 145.064 57.5H146.614C149.975 57.5 152.952 55.3286 153.978 52.1275L156.858 43.1471C157.687 40.5615 159.771 38.573 162.392 37.8659L180.125 33.0831C181.539 32.7017 182.821 31.9394 183.832 30.8794L191.511 22.8239C193.956 20.2594 197.797 19.6086 200.95 21.2246L211.702 26.7345C213.301 27.5542 214.578 28.8887 215.327 30.5229L221.614 44.2513C221.842 44.7491 222.018 45.269 222.14 45.8029L226.236 63.7563C227.123 67.6436 232.561 67.9064 233.819 64.1228V64.1228C234.062 63.3904 234.515 62.7456 235.122 62.2684L237.409 60.4693C238.222 59.8292 238.904 59.0372 239.416 58.1373L254 32.5" stroke="#FFB800" stroke-width="2"/>
<circle cx="253.5" cy="32.5" r="8.5" fill="#FFB800" fill-opacity="0.15"/>
<circle cx="254" cy="33" r="3.5" fill="#FFB800" stroke="#FFB800"/>
</svg>
